<?xml version="1.0" encoding="UTF-8" standalone="no"?>
<!-- Created with Inkscape (http://www.inkscape.org/) -->
<svg
   xmlns:dc="http://purl.org/dc/elements/1.1/"
   xmlns:cc="http://creativecommons.org/ns#"
   xmlns:rdf="http://www.w3.org/1999/02/22-rdf-syntax-ns#"
   xmlns:svg="http://www.w3.org/2000/svg"
   xmlns="http://www.w3.org/2000/svg"
   xmlns:sodipodi="http://sodipodi.sourceforge.net/DTD/sodipodi-0.dtd"
   xmlns:inkscape="http://www.inkscape.org/namespaces/inkscape"
   width="256"
   height="256"
   id="svg2"
   sodipodi:version="0.32"
   inkscape:version="0.46"
   version="1.0"
   sodipodi:docname="logo.svg"
   inkscape:output_extension="org.inkscape.output.svg.inkscape"
   inkscape:export-filename="/home/nightz/Projects/devkitPPC/knowledge/logo.png"
   inkscape:export-xdpi="90"
   inkscape:export-ydpi="90">
  <sodipodi:namedview
     id="base"
     pagecolor="#ffffff"
     bordercolor="#666666"
     borderopacity="1.0"
     gridtolerance="10000"
     guidetolerance="10"
     objecttolerance="10"
     inkscape:pageopacity="0.0"
     inkscape:pageshadow="2"
     inkscape:zoom="1"
     inkscape:cx="328.8"
     inkscape:cy="90"
     inkscape:document-units="px"
     inkscape:current-layer="layer1"
     showgrid="false"
     inkscape:window-width="1278"
     inkscape:window-height="775"
     inkscape:window-x="0"
     inkscape:window-y="0" />
  <defs
     id="defs4" />
  <metadata
     id="metadata7">
    <rdf:RDF>
      <cc:Work
         rdf:about="">
        <dc:format>image/svg+xml</dc:format>
        <dc:type
           rdf:resource="http://purl.org/dc/dcmitype/StillImage" />
      </cc:Work>
    </rdf:RDF>
  </metadata>
  <g
     inkscape:label="Layer 1"
     inkscape:groupmode="layer"
     id="layer1">
    <rect
       style="opacity:1;fill:#ffffff;fill-opacity:1;stroke:none;stroke-width:4;stroke-linecap:square;stroke-linejoin:round;stroke-miterlimit:4;stroke-dasharray:none;stroke-dashoffset:0;stroke-opacity:1"
       id="rect3154"
       width="256"
       height="256"
       x="0"
       y="0"
       rx="0"
       ry="0" />
    <rect
       style="fill:#171a1b;fill-opacity:1;stroke:none;stroke-width:1;stroke-linecap:square;stroke-linejoin:round;stroke-miterlimit:4;stroke-dasharray:none;stroke-dashoffset:0;stroke-opacity:1"
       id="rect2383"
       width="250"
       height="252"
       x="3"
       y="2"
       ry="13"
       rx="12.999999" />
    <path
       id="path2248"
       d="M 72.906961,48.718363 C 73.120101,48.829401 73.352551,49.008867 73.423521,49.117174 C 73.494491,49.225488 73.680531,49.447474 73.836951,49.610472 C 74.307091,50.100401 75.299401,51.216256 75.735511,51.74541 C 76.734491,52.95754 78.141571,54.56155 79.471891,56.00474 C 79.817881,56.3801 80.137651,56.75352 80.182471,56.83457 C 80.227301,56.91563 80.557011,57.30943 80.915141,57.70969 C 81.273291,58.10994 81.608861,58.51693 81.660861,58.61411 C 81.712881,58.71128 81.839921,58.83779 81.943191,58.89524 C 82.126141,58.99701 82.350621,59.02583 84.365221,59.20614 C 84.898491,59.25387 85.457401,59.32972 85.607251,59.3747 C 85.757091,59.41967 86.440021,59.48146 87.124861,59.51201 L 88.370031,59.56755 L 88.842521,59.20218 C 89.453871,58.72944 89.942551,58.32469 90.379781,57.92895 C 91.068411,57.30566 91.788251,56.70348 92.670821,56.01236 C 92.937301,55.80369 93.368611,55.44963 93.629281,55.22556 C 93.889951,55.00149 94.254991,54.6882 94.440481,54.52936 C 94.625961,54.37052 94.910511,54.1256 95.072811,53.9851 C 95.382841,53.7167 95.888781,53.30044 96.759051,52.59774 C 97.615281,51.90637 98.135081,51.46803 98.403131,51.211316 C 98.542241,51.078086 98.822701,50.88621 99.026361,50.784928 L 99.396651,50.600774 L 99.869481,50.829191 C 100.12953,50.954816 100.41865,51.127216 100.51197,51.212294 C 100.60529,51.297374 100.87087,51.449159 101.10215,51.54959 C 101.33343,51.65003 101.61805,51.82114 101.73464,51.92984 C 101.85122,52.03854 102.11159,52.18568 102.31325,52.25683 C 102.5149,52.32797 102.80972,52.50018 102.9684,52.63951 C 103.12709,52.77883 103.3048,52.89283 103.36333,52.89283 C 103.42185,52.89283 103.72968,53.06356 104.04739,53.27223 C 104.3651,53.4809 104.67501,53.65163 104.73607,53.65163 C 104.79714,53.65163 104.97694,53.76563 105.13562,53.90496 C 105.2943,54.04428 105.58117,54.21367 105.77308,54.28139 C 105.965,54.34911 106.32972,54.58381 106.58356,54.80296 C 107.12879,55.27368 107.14385,55.36749 106.83664,56.37957 C 106.72199,56.75725 106.56948,57.57845 106.49772,58.20447 C 106.42595,58.83048 106.2739,59.66517 106.15981,60.05933 C 106.04572,60.45348 105.89394,61.28817 105.82253,61.91418 C 105.7511,62.5402 105.59967,63.37829 105.48599,63.77661 C 105.37231,64.17494 105.22057,65.00962 105.14878,65.63147 C 105.07699,66.25332 104.92594,67.0846 104.8131,67.47876 C 104.44028,68.78119 104.43572,68.72116 104.97637,69.62721 C 105.23974,70.06856 105.48442,70.42967 105.5201,70.42967 C 105.55579,70.42967 105.68557,70.61448 105.80851,70.84037 C 105.93145,71.06625 106.0922,71.30099 106.16573,71.36202 C 106.23926,71.42305 106.38757,71.64609 106.49528,71.85767 C 106.60301,72.06926 106.78975,72.33435 106.91026,72.44677 C 107.03079,72.55919 107.12939,72.69738 107.12939,72.75386 C 107.12939,72.95733 108.09242,74.13707 108.36353,74.26571 C 108.51415,74.33719 109.07981,74.45369 109.62054,74.52461 C 110.16127,74.59552 110.89996,74.74713 111.26205,74.86152 C 111.62414,74.9759 112.36398,75.12766 112.90613,75.19876 C 113.44828,75.26986 114.19214,75.4229 114.55917,75.53884 C 114.9262,75.65478 115.66549,75.8041 116.20205,75.87067 C 116.73861,75.93723 117.48634,76.08921 117.86367,76.20841 C 118.24099,76.32761 118.99237,76.47993 119.53338,76.54692 C 120.60858,76.68003 121.50989,76.92303 121.80015,77.15808 C 121.94983,77.27928 121.99911,77.43895 122.05361,77.9793 C 122.13801,78.81612 122.19712,79.1584 122.39589,79.96135 C 122.4826,80.31158 122.61362,81.26009 122.68705,82.06914 C 122.76362,82.91274 122.9085,83.88828 123.02675,84.35638 C 123.14015,84.80532 123.23293,85.32153 123.23293,85.50354 C 123.23293,85.80774 123.19421,85.8634 122.75317,86.19323 C 122.4893,86.39056 122.12541,86.60423 121.94452,86.66805 C 121.76364,86.73188 121.50645,86.87596 121.37301,86.98825 C 121.23956,87.10054 120.94395,87.25433 120.71611,87.33001 C 120.48827,87.40569 120.23532,87.54112 120.154,87.63098 C 120.07269,87.72084 119.79316,87.87378 119.53283,87.97084 C 119.2725,88.06791 118.98324,88.21853 118.89003,88.30555 C 118.79682,88.39257 118.49617,88.563 118.22193,88.68428 C 117.94768,88.80557 117.63269,88.97608 117.52194,89.0632 C 117.41119,89.15031 117.18067,89.26695 117.00967,89.3224 C 116.83868,89.37785 116.58839,89.50331 116.45348,89.60121 C 116.20551,89.78116 115.50309,90.15701 114.42072,90.68892 C 114.09523,90.84888 113.77929,91.03953 113.71867,91.1126 C 113.65803,91.18565 113.42046,91.30786 113.19073,91.38416 C 112.96101,91.46047 112.66648,91.61256 112.53623,91.72216 C 112.40598,91.83176 112.09415,91.99897 111.84328,92.09377 C 111.5924,92.18855 111.21262,92.42756 110.99932,92.62489 C 110.65748,92.94113 110.60063,93.04541 110.51977,93.50444 C 110.46933,93.79087 110.32964,94.23323 110.20935,94.48748 C 110.08907,94.74173 109.93559,95.2376 109.86827,95.58941 C 109.80097,95.94122 109.65571,96.40928 109.54549,96.62954 C 109.32015,97.07983 109.06856,98.11231 109.06856,98.58673 C 109.06856,99.03665 109.27103,99.64593 109.536,99.99331 C 109.6618,100.15824 109.81501,100.46031 109.87649,100.66457 C 109.93797,100.86882 110.08195,101.159 110.19647,101.3094 C 110.31098,101.4598 110.48488,101.79756 110.58292,102.05997 C 110.68096,102.32238 110.8152,102.58193 110.88126,102.63675 C 110.94732,102.69157 111.07949,102.94524 111.17498,103.20046 C 111.27047,103.45567 111.43948,103.78419 111.55057,103.9305 C 111.66165,104.07681 111.82954,104.39996 111.92366,104.64861 C 112.01777,104.89727 112.15419,105.16637 112.22682,105.24662 C 112.29944,105.32687 112.44947,105.62374 112.56021,105.90633 C 112.67097,106.18892 112.85646,106.54583 112.97242,106.69947 C 113.08839,106.85311 113.2227,107.12405 113.27089,107.30158 C 113.31909,107.47909 113.45478,107.75056 113.57245,107.90483 C 113.69013,108.05911 113.86453,108.39415 113.96002,108.64936 C 114.05551,108.90458 114.18767,109.15825 114.25373,109.21307 C 114.31979,109.26789 114.45346,109.52557 114.55079,109.78569 C 114.64811,110.04581 114.83924,110.41026 114.97553,110.59558 C 115.36754,111.12864 115.31979,111.3459 114.65864,112.03751 C 114.34833,112.36211 113.73414,113.02606 113.29377,113.51296 C 112.8534,113.99986 112.18734,114.72186 111.81365,115.1174 C 111.43995,115.51294 110.75581,116.24316 110.29336,116.74011 C 109.62337,117.46006 109.39275,117.65486 109.15842,117.69882 C 108.77773,117.77024 108.25186,117.62643 107.76524,117.31783 C 107.55197,117.18258 107.23628,117.0458 107.06373,117.01389 C 106.89117,116.98197 106.55349,116.84392 106.31332,116.7071 C 106.07316,116.57028 105.67876,116.39956 105.43689,116.32774 C 105.19503,116.25591 104.85447,116.10273 104.6801,115.98735 C 104.50573,115.87196 104.14652,115.721 103.88183,115.65188 C 103.61714,115.58275 103.25716,115.43129 103.08185,115.31528 C 102.90656,115.19928 102.56535,115.05219 102.32362,114.98842 C 102.08189,114.92466 101.74509,114.78048 101.57519,114.66805 C 101.40528,114.55561 101.04458,114.39917 100.77363,114.32039 C 100.50268,114.24163 100.13714,114.08198 99.961311,113.96563 C 99.785481,113.84927 99.425061,113.69752 99.160371,113.6284 C 98.895691,113.55927 98.539871,113.41057 98.369681,113.29794 C 98.199481,113.18531 97.864751,113.0351 97.625821,112.96416 C 97.386891,112.8932 96.970981,112.7192 96.701571,112.57748 C 96.142371,112.28332 95.900601,112.29306 95.391051,112.63026 C 95.216771,112.74559 94.874691,112.88122 94.630861,112.93165 C 94.387041,112.98207 93.992821,113.1313 93.754831,113.26327 C 93.516831,113.39523 93.080521,113.56484 92.785241,113.64018 C 92.489971,113.71551 92.107691,113.86896 91.935751,113.98116 C 91.763811,114.09336 91.441311,114.225 91.219101,114.27371 C 90.996881,114.32242 90.750211,114.38191 90.670951,114.40593 C 90.467871,114.46745 89.780471,115.52983 89.638481,116.00163 C 89.573221,116.21849 89.424671,116.5397 89.308391,116.71542 C 89.192091,116.89114 89.036831,117.24175 88.963331,117.49455 C 88.889851,117.74735 88.736681,118.08029 88.622971,118.23442 C 88.509251,118.38855 88.356091,118.72149 88.282601,118.97429 C 88.209101,119.22709 88.057311,119.57244 87.945281,119.74173 C 87.833251,119.91102 87.686411,120.23289 87.618961,120.45699 C 87.551521,120.6811 87.401191,121.00822 87.284901,121.18394 C 87.168611,121.35967 87.013351,121.71027 86.939851,121.96307 C 86.866361,122.21587 86.713201,122.54881 86.599481,122.70294 C 86.485771,122.85708 86.336091,123.17622 86.266861,123.41217 C 86.197621,123.64811 86.047831,123.97718 85.933981,124.14344 C 85.820131,124.30971 85.666301,124.65452 85.592121,124.90968 C 85.517941,125.16485 85.364211,125.49973 85.250501,125.65385 C 85.136781,125.80799 84.982671,126.1461 84.908021,126.40523 C 84.763161,126.90805 84.570131,127.16749 84.145741,127.42978 C 83.905021,127.57855 83.851301,127.5827 83.548631,127.47591 C 83.328851,127.39838 82.259911,127.31164 80.397081,127.22021 C 78.846661,127.14411 77.321321,127.04511 77.007461,127.00019 C 76.693591,126.95528 76.287661,126.91853 76.105391,126.91853 C 75.830141,126.91853 75.738981,126.87211 75.567231,126.64452 C 75.245631,126.21835 74.921571,125.36081 74.783761,124.57124 C 74.714661,124.17539 74.568131,123.63768 74.458131,123.37634 C 74.348141,123.115 74.198311,122.55634 74.125181,122.13485 C 74.052051,121.71337 73.895041,121.15624 73.776261,120.8968 C 73.657481,120.63736 73.506901,120.09343 73.441641,119.68807 C 73.376381,119.28272 73.230041,118.7424 73.116451,118.48736 C 73.002861,118.23231 72.848911,117.67013 72.774321,117.23807 C 72.699751,116.806 72.546061,116.24295 72.432801,115.98686 C 72.319551,115.73075 72.166591,115.1737 72.092911,114.74895 C 71.869741,113.46251 71.531771,113.02888 70.209621,112.3326 C 69.989491,112.21667 69.679311,112.02218 69.520321,111.9004 C 69.361341,111.77861 69.093581,111.63491 68.925291,111.58106 C 68.757011,111.5272 68.555111,111.4122 68.476641,111.32548 C 68.398181,111.23877 68.137491,111.08451 67.897351,110.98267 C 67.657201,110.88083 67.365331,110.70806 67.248741,110.59875 C 66.987561,110.35385 66.403611,110.1404 65.995741,110.14076 C 65.477881,110.14122 64.222311,110.39202 63.639321,110.61146 C 63.334421,110.72623 62.722621,110.87837 62.279771,110.94956 C 61.836921,111.02074 61.306801,111.15314 61.101731,111.24377 C 60.896651,111.3344 60.403421,111.46761 60.005671,111.53981 C 59.607921,111.612 58.922051,111.7823 58.481521,111.91824 C 58.040991,112.0542 57.354471,112.22227 56.955921,112.29174 C 56.557371,112.3612 55.962341,112.512 55.633641,112.62684 C 55.304931,112.74168 54.701491,112.89293 54.292641,112.96295 C 53.883791,113.03296 53.402911,113.15503 53.224021,113.23421 C 52.902721,113.3764 52.893321,113.37532 52.454791,113.14571 C 52.120431,112.97065 51.974111,112.83181 51.862031,112.58328 C 51.780191,112.40179 51.638501,112.18576 51.547171,112.10324 C 51.455831,112.02071 51.294111,111.78247 51.187791,111.57379 C 51.081461,111.36512 50.895861,111.10242 50.775341,110.99 C 50.654821,110.87758 50.556221,110.73889 50.556221,110.6818 C 50.556221,110.62471 50.423821,110.41954 50.262011,110.22587 C 50.100201,110.03219 49.896681,109.71559 49.809751,109.52232 C 49.722821,109.32905 49.551681,109.07894 49.429461,108.96651 C 49.307231,108.85409 49.207231,108.71541 49.207231,108.65832 C 49.207231,108.60123 49.071441,108.392 48.905481,108.19335 C 48.739511,107.9947 48.511231,107.64965 48.398181,107.42657 C 48.285141,107.20349 48.158111,107.02096 48.115881,107.02096 C 48.012261,107.02096 47.605311,106.14883 47.605311,105.92677 C 47.605311,105.7062 47.882571,105.15222 48.071421,104.99549 C 48.149071,104.93105 48.341621,104.68698 48.499311,104.45311 C 48.657001,104.21924 48.956421,103.80025 49.164691,103.52202 C 49.372951,103.2438 49.610001,102.90555 49.691471,102.77037 C 49.772921,102.63518 49.972361,102.37374 50.134661,102.18939 C 50.296961,102.00502 50.505631,101.73177 50.598371,101.58216 C 50.850201,101.1759 51.234031,100.64952 51.589041,100.22356 C 51.762931,100.01492 51.905211,99.80823 51.905211,99.76426 C 51.905211,99.72028 52.022861,99.56135 52.166661,99.41106 C 52.310461,99.26078 52.486771,99.02399 52.558451,98.88488 C 52.630141,98.74577 52.816011,98.48284 52.971501,98.3006 C 53.126971,98.11836 53.254191,97.92627 53.254191,97.87374 C 53.254191,97.8212 53.371401,97.66679 53.514661,97.53059 C 53.657911,97.39439 53.833811,97.16914 53.905551,97.03002 C 53.977281,96.89091 54.163601,96.6347 54.319581,96.46067 C 54.475561,96.28664 54.603181,96.10874 54.603181,96.06532 C 54.603181,96.02191 54.754941,95.81104 54.940431,95.59672 C 55.125911,95.38241 55.277681,95.16815 55.277681,95.12059 C 55.277681,95.07302 55.393921,94.87223 55.536011,94.67438 L 55.794351,94.31465 L 55.581921,93.43807 C 55.465091,92.95596 55.308901,91.90732 55.234831,91.10776 C 55.025201,88.8448 54.864241,88.36788 54.103571,87.75573 C 53.815461,87.52387 53.421121,87.19957 53.227261,87.03505 C 53.033411,86.87054 52.779941,86.66987 52.664011,86.58913 C 52.548081,86.50838 52.239381,86.28255 51.978011,86.08728 C 51.716631,85.89201 51.341191,85.61843 51.143701,85.47931 C 50.946191,85.3402 50.685791,85.1299 50.565021,85.01197 C 50.444251,84.89406 50.203161,84.71075 50.029271,84.60461 C 49.855381,84.49849 49.713101,84.37842 49.713101,84.33778 C 49.713101,84.29715 49.532881,84.16042 49.312621,84.03394 C 49.092361,83.90746 48.770681,83.6877 48.597801,83.54559 C 48.424911,83.40348 48.102421,83.14359 47.881151,82.96805 C 47.659871,82.79251 47.296311,82.49847 47.073231,82.31463 C 46.850141,82.13079 46.641201,81.98038 46.608921,81.98038 C 46.576631,81.98038 46.342081,81.80965 46.087701,81.60097 C 45.833311,81.3923 45.583581,81.22157 45.532741,81.22157 C 45.481891,81.22157 45.319461,81.08878 45.171771,80.92648 C 45.024081,80.76418 44.868431,80.63139 44.825881,80.63139 C 44.704201,80.63139 43.775401,79.79181 43.713281,79.62565 C 43.628641,79.39927 43.857201,78.34099 44.090511,77.87903 C 44.204211,77.6539 44.359401,77.16792 44.435351,76.79909 C 44.511321,76.43025 44.668681,75.9205 44.785061,75.66632 C 44.901421,75.41213 45.055461,74.9194 45.127341,74.57137 C 45.199241,74.22333 45.346261,73.7645 45.454081,73.55173 C 45.561881,73.33897 45.716661,72.82975 45.798011,72.42014 C 46.028611,71.25897 46.367541,70.99501 47.585661,71.02793 C 48.609681,71.0556 51.519331,70.92176 51.820891,70.83311 C 52.138821,70.73965 53.549221,70.66434 57.722721,70.51799 L 60.378531,70.42486 L 61.155271,69.60523 C 61.582461,69.15443 62.238421,68.4631 62.612931,68.06894 C 63.955491,66.65597 64.402301,66.16899 64.529161,65.98045 C 64.639261,65.81682 64.656271,65.3571 64.646111,62.81877 C 64.634051,59.80621 64.512161,54.30891 64.423131,52.76242 C 64.380021,52.01362 64.392001,51.90029 64.526401,51.78552 C 64.835371,51.52168 65.827231,51.039843 66.329111,50.909793 C 66.613661,50.836061 66.990901,50.684563 67.167421,50.573126 C 67.343931,50.4617 67.738211,50.31258 68.043601,50.241758 C 68.348991,50.170936 68.741151,50.020119 68.915051,49.906619 C 69.088981,49.793108 69.472861,49.638598 69.768141,49.563268 C 70.063421,49.487927 70.499731,49.318787 70.737731,49.187396 C 70.975721,49.056004 71.320431,48.922245 71.503761,48.890146 C 71.687091,48.85805 71.979621,48.759075 72.153821,48.670204 C 72.529441,48.47858 72.435111,48.472543 72.906961,48.718363 z M 81.540781,76.01456 C 81.216181,76.05976 80.760901,76.16981 80.529041,76.25909 C 80.297181,76.34839 79.825771,76.47652 79.481461,76.54385 C 79.124281,76.61369 78.726011,76.7551 78.554031,76.87313 C 78.388261,76.98691 78.037921,77.15963 77.775511,77.25695 C 77.513101,77.35428 77.250051,77.49216 77.190971,77.56336 C 77.131881,77.63456 76.929241,77.77093 76.740651,77.86641 C 76.298641,78.0902 75.088741,79.15762 74.526131,79.82012 C 74.285041,80.10402 73.963541,80.47725 73.811681,80.64953 C 73.659821,80.82181 73.487871,81.10053 73.429581,81.26891 C 73.371291,81.4373 73.214901,81.69886 73.082051,81.85017 C 72.949201,82.00147 72.794431,82.31082 72.738101,82.53761 C 72.681771,82.7644 72.542091,83.08629 72.427701,83.25291 C 72.281391,83.46604 72.171651,83.82852 72.057591,84.47543 C 71.968411,84.98119 71.837981,85.69852 71.767741,86.0695 C 71.558411,87.17509 71.580501,87.48126 72.053101,90.02447 C 72.156731,90.58217 72.303431,91.07999 72.425751,91.28914 C 72.536711,91.47885 72.684131,91.82377 72.753351,92.05563 C 72.822571,92.28749 73.006931,92.67118 73.163031,92.90828 C 73.319131,93.14539 73.513701,93.44891 73.595421,93.58278 C 73.982101,94.2163 74.180801,94.45499 74.982751,95.24935 C 76.054791,96.31123 76.370281,96.57239 76.908931,96.84389 C 77.143701,96.96221 77.383751,97.11681 77.442371,97.18745 C 77.500991,97.25808 77.745221,97.37901 77.985101,97.45618 C 78.224981,97.53335 78.554691,97.68623 78.717801,97.79592 C 78.892391,97.91333 79.343181,98.06351 79.813861,98.16108 C 80.253581,98.25224 80.782591,98.38712 80.989431,98.46083 C 81.996651,98.81973 84.460771,98.76 85.476261,98.35205 C 85.600421,98.30217 86.016961,98.20161 86.401881,98.12859 C 86.834981,98.04643 87.215711,97.91685 87.400761,97.78861 C 87.565211,97.67465 87.870461,97.53002 88.079081,97.46724 C 88.287711,97.40445 88.640601,97.214 88.863301,97.04401 C 89.086011,96.87401 89.308141,96.73493 89.356931,96.73493 C 89.405721,96.73493 89.589301,96.61163 89.764881,96.46092 C 89.940471,96.31021 90.392661,95.92132 90.769761,95.59672 C 91.146851,95.27212 91.571371,94.82633 91.713131,94.60606 C 91.854881,94.3858 92.001751,94.20558 92.039501,94.20558 C 92.077261,94.20558 92.193161,94.0633 92.297071,93.88941 C 92.400971,93.71552 92.573321,93.47785 92.680071,93.36126 C 92.786821,93.24468 92.934091,92.9791 93.007361,92.77108 C 93.080621,92.56307 93.231551,92.26009 93.342771,92.09779 C 93.453981,91.93549 93.591191,91.61299 93.647651,91.38114 C 93.704121,91.14928 93.861381,90.67967 93.997131,90.33757 C 94.333261,89.49044 94.456481,87.98138 94.334111,86.21031 C 94.261251,85.15567 94.211081,84.86772 94.028271,84.4552 C 93.907981,84.18377 93.756401,83.70289 93.691421,83.38657 C 93.620911,83.04337 93.500161,82.73362 93.391991,82.61848 C 93.292281,82.51235 93.133561,82.22103 93.039251,81.97109 C 92.944961,81.72115 92.782061,81.42181 92.677271,81.30588 C 92.572481,81.18995 92.386571,80.91915 92.264151,80.70408 C 92.044091,80.3175 90.613861,78.82428 89.951301,78.28937 C 89.763011,78.13736 89.481961,77.95086 89.326741,77.87493 C 89.171521,77.79899 88.941691,77.652 88.816001,77.54829 C 88.690311,77.44457 88.405761,77.29168 88.183661,77.2085 C 87.961571,77.12533 87.645571,76.97011 87.481471,76.86358 C 87.317351,76.75704 86.843101,76.59653 86.427571,76.5069 C 86.012031,76.41726 85.520291,76.27827 85.334811,76.19802 C 84.720031,75.93205 82.800011,75.83921 81.540781,76.01456 z M 156.09561,88.05302 C 156.20693,88.09844 156.35767,88.29505 156.45468,88.52135 C 156.54663,88.73587 156.6955,89.005 156.7855,89.11942 C 156.8755,89.23383 157.01086,89.53976 157.0863,89.79926 C 157.16173,90.05877 157.31593,90.39233 157.42896,90.54051 C 157.54198,90.68869 157.69718,90.99537 157.77383,91.22201 C 157.85049,91.44865 158.00433,91.77266 158.1157,91.94205 C 158.22707,92.11145 158.37337,92.4334 158.44082,92.65751 C 158.50826,92.88161 158.65431,93.20228 158.76538,93.3701 C 158.87644,93.53793 159.0255,93.87119 159.09662,94.11069 C 159.16774,94.35017 159.33907,94.70663 159.47735,94.9028 C 159.61562,95.09897 159.76839,95.41223 159.81682,95.59894 C 159.86525,95.78565 159.99965,96.06686 160.11547,96.22385 C 160.2313,96.38085 160.3862,96.71613 160.45969,96.96893 C 160.53317,97.22173 160.68845,97.57234 160.80474,97.74806 C 160.92102,97.92379 161.07123,98.2505 161.13852,98.4741 C 161.20581,98.6977 161.35265,99.01439 161.46482,99.17786 C 161.577,99.34132 161.74737,99.68697 161.84342,99.94597 C 162.04288,100.48383 162.25569,100.71488 162.73413,100.91308 C 162.91898,100.98965 163.23089,101.12493 163.42727,101.21371 C 163.62365,101.30248 164.08604,101.43236 164.45481,101.50231 C 164.82358,101.57227 165.32686,101.72087 165.57322,101.83254 C 165.81957,101.9442 166.34363,102.09594 166.73779,102.16974 C 167.13194,102.24355 167.63559,102.39864 167.85699,102.51439 C 168.0784,102.63015 168.42158,102.74706 168.6196,102.77421 C 168.92605,102.81621 169.01882,102.7906 169.24271,102.60221 C 169.38739,102.48047 169.70817,102.29111 169.95556,102.18141 C 170.20294,102.07171 170.48046,101.89851 170.57226,101.79653 C 170.66406,101.69453 170.86664,101.55783 171.02243,101.49274 C 171.17823,101.42765 171.4207,101.27761 171.56127,101.15933 C 171.70184,101.04105 171.95454,100.88675 172.12284,100.81645 C 172.29113,100.74616 172.52368,100.59998 172.63961,100.49161 C 172.75554,100.38324 173.00657,100.21633 173.19745,100.1207 C 173.38834,100.02508 173.65392,99.85537 173.78764,99.74356 C 173.92135,99.63176 174.11861,99.51278 174.22599,99.47916 C 174.33337,99.44554 174.5472,99.30743 174.70115,99.17226 C 174.85511,99.03708 175.12768,98.86606 175.30687,98.7922 C 175.48607,98.71836 175.71939,98.57781 175.82538,98.47987 C 176.01025,98.30906 176.21978,98.17749 177.19443,97.6202 C 177.43773,97.48109 177.76012,97.26281 177.91086,97.13513 C 178.06159,97.00746 178.33153,96.84268 178.51072,96.76897 C 178.68991,96.69525 178.93137,96.54563 179.0473,96.43647 C 179.16323,96.32732 179.39127,96.18237 179.55405,96.11437 C 179.71684,96.04637 179.95442,95.89399 180.08202,95.77573 C 180.35861,95.51939 180.89125,95.34376 181.17562,95.41514 C 181.28806,95.44336 181.52862,95.58455 181.71021,95.72891 C 181.8918,95.87326 182.17316,96.04686 182.33546,96.11468 C 182.49776,96.18251 182.7254,96.32652 182.84133,96.43469 C 182.95726,96.54286 183.17835,96.6951 183.33265,96.77301 C 183.48695,96.8509 183.7839,97.04494 183.99253,97.20419 C 184.20116,97.36344 184.41998,97.49374 184.4788,97.49374 C 184.53762,97.49374 184.65802,97.57376 184.74635,97.67158 C 184.83469,97.76939 185.11564,97.95495 185.37068,98.08392 C 185.62572,98.21289 185.90353,98.39498 185.98803,98.48856 C 186.07254,98.58213 186.26224,98.70703 186.40959,98.76612 C 186.55695,98.8252 186.78726,98.96357 186.92139,99.07359 C 187.05552,99.18361 187.34806,99.36626 187.57148,99.47947 C 188.12046,99.75766 188.19738,100.0373 188.07142,101.29722 C 187.98008,102.2109 187.93873,102.46551 187.69644,103.60634 C 187.6275,103.93094 187.51189,104.87944 187.43954,105.71413 C 187.3672,106.54882 187.21405,107.68904 187.09922,108.24797 C 186.98438,108.80689 186.83429,109.92612 186.76567,110.73516 C 186.69705,111.54419 186.56739,112.5634 186.47754,113.00006 C 186.38769,113.43671 186.33714,113.85405 186.36521,113.92748 C 186.42592,114.08628 186.9061,114.72451 187.19228,115.02677 C 187.81819,115.68785 189.80101,117.97353 190.25196,118.55378 C 190.40649,118.75261 190.67884,118.98974 190.8572,119.08073 C 191.1714,119.24103 191.3913,119.24616 197.94182,119.24616 L 204.70216,119.24616 L 205.10064,119.64664 C 205.40311,119.95063 205.5338,120.16728 205.64301,120.54579 C 205.72215,120.82006 205.88005,121.18049 205.99389,121.34676 C 206.10773,121.51302 206.25753,121.84209 206.32676,122.07803 C 206.396,122.31398 206.54568,122.63313 206.65939,122.78726 C 206.77311,122.94139 206.92627,123.27432 206.99976,123.52712 C 207.07326,123.77992 207.22853,124.13054 207.34481,124.30626 C 207.4611,124.48198 207.61143,124.8091 207.67887,125.03321 C 207.74632,125.25731 207.89755,125.58581 208.01495,125.76322 C 208.27374,126.15427 208.51432,127.07606 208.43749,127.38217 C 208.40676,127.50462 208.25969,127.73158 208.11068,127.88652 C 207.96167,128.04146 207.65006,128.40329 207.4182,128.69059 C 206.93783,129.28583 206.31913,130.02148 205.92002,130.47196 C 205.77022,130.64104 205.49589,130.954 205.3104,131.16743 C 205.12492,131.38086 204.84037,131.70169 204.67807,131.88039 C 204.51577,132.05908 204.19327,132.44466 203.96142,132.73722 C 203.50269,133.31605 202.42324,134.60106 201.94392,135.13892 C 201.63783,135.4824 201.49847,135.64183 200.30494,137.01391 C 199.86185,137.52327 199.6093,137.8891 199.57518,138.071 C 199.50302,138.45566 199.68292,140.30887 199.87166,141.12506 C 200.03687,141.8395 200.16087,142.67067 200.28517,143.89684 C 200.37211,144.75445 200.49088,144.96875 201.06684,145.30715 C 201.27411,145.42893 201.54369,145.62855 201.66591,145.75077 C 201.78812,145.87299 201.94384,145.97298 202.01196,145.97298 C 202.08007,145.97298 202.30738,146.10395 202.51709,146.26403 C 202.7268,146.4241 203.04525,146.63 203.22476,146.72158 C 203.40427,146.81316 203.60297,146.95054 203.66633,147.02688 C 203.72968,147.10321 203.92838,147.2406 204.10789,147.33218 C 204.2874,147.42375 204.60585,147.62965 204.81556,147.78973 C 205.02527,147.94981 205.24424,148.08078 205.30217,148.08078 C 205.36009,148.08078 205.49946,148.18078 205.61188,148.30301 C 205.7243,148.42524 205.97583,148.597 206.17085,148.6847 C 206.36586,148.7724 206.63144,148.93279 206.76103,149.04112 C 206.89062,149.14946 207.15094,149.31639 207.33953,149.41208 C 207.52811,149.50777 207.73425,149.64852 207.7976,149.72485 C 207.86095,149.80119 208.06709,149.94093 208.25568,150.03538 C 208.44427,150.12984 208.69341,150.29579 208.80934,150.40415 C 208.92527,150.51252 209.15368,150.65697 209.31693,150.72516 C 209.48017,150.79335 209.68884,150.93259 209.78064,151.03457 C 209.87244,151.13656 210.13725,151.30429 210.36911,151.4073 C 210.60097,151.51032 210.8452,151.66061 210.91184,151.74128 C 210.97848,151.82195 211.20907,151.97717 211.42424,152.08621 C 211.81639,152.28493 212.19248,152.68816 212.29848,153.02354 C 212.32986,153.12283 212.23988,153.74293 212.09662,154.41468 C 211.95445,155.08128 211.78132,156.25269 211.71188,157.01782 C 211.64245,157.78295 211.52781,158.6366 211.45713,158.91483 C 211.38645,159.19306 211.25639,159.81908 211.16811,160.30598 C 210.97778,161.35578 210.92277,161.41893 210.07695,161.55861 C 209.74579,161.6133 209.29664,161.75121 209.07885,161.86508 C 208.86107,161.97894 208.36324,162.13273 207.97258,162.20682 C 207.58191,162.28092 207.08869,162.42936 206.87653,162.5367 C 206.66436,162.64403 206.16828,162.79627 205.77412,162.87499 C 205.37996,162.95372 204.85574,163.11211 204.60918,163.22697 C 204.36262,163.34182 203.87592,163.49032 203.52762,163.55696 C 203.17933,163.6236 202.64122,163.78775 202.33183,163.92174 C 202.02245,164.05572 201.50796,164.20958 201.18852,164.26364 C 200.86908,164.31771 200.42329,164.45541 200.19786,164.56964 C 199.97243,164.68387 199.49541,164.83332 199.1378,164.90174 C 198.13405,165.09379 197.97505,165.17039 197.48778,165.6967 C 197.1382,166.07429 197.00147,166.30205 196.89362,166.68645 C 196.81656,166.96107 196.6594,167.31332 196.54438,167.46923 C 196.42935,167.62515 196.2751,167.95955 196.20161,168.21234 C 196.12812,168.46514 195.97633,168.81049 195.8643,168.97978 C 195.75227,169.14907 195.60632,169.46797 195.53997,169.68844 C 195.47362,169.90891 195.29253,170.28685 195.13754,170.52831 C 194.87385,170.93912 194.85575,171.01394 194.85575,171.69309 C 194.85575,172.36352 194.87641,172.45212 195.12669,172.85509 C 195.27571,173.09501 195.45622,173.48858 195.52782,173.72969 C 195.59942,173.97079 195.75494,174.30793 195.87341,174.47889 C 195.99188,174.64985 196.14099,174.98749 196.20475,175.22919 C 196.26851,175.47091 196.41267,175.80768 196.52512,175.97759 C 196.63755,176.1475 196.794,176.5082 196.87276,176.77914 C 196.95153,177.05009 197.11112,177.41555 197.22741,177.59127 C 197.34369,177.76699 197.49402,178.09412 197.56146,178.31822 C 197.62891,178.54233 197.77575,178.8642 197.88778,179.03348 C 197.99982,179.20278 198.1516,179.54812 198.2251,179.80092 C 198.29859,180.05372 198.45175,180.38666 198.56547,180.54079 C 198.67918,180.69492 198.83235,181.02786 198.90584,181.28066 C 198.97933,181.53346 199.1346,181.88407 199.25089,182.05979 C 199.36717,182.23551 199.5175,182.56264 199.58494,182.78675 C 199.65239,183.01085 199.80271,183.33796 199.91898,183.51367 C 200.14726,183.85862 200.32212,184.57876 200.23589,184.8188 C 200.20658,184.9004 200.06535,185.08537 199.92206,185.22985 C 199.77876,185.37434 199.52142,185.65889 199.3502,185.86219 C 199.17897,186.06549 198.8375,186.47146 198.59139,186.76434 C 197.10433,188.53394 195.90415,189.8966 195.14325,190.67928 C 194.58383,191.25471 194.42646,191.27994 193.65964,190.91717 C 193.37275,190.78145 192.80364,190.60841 192.39496,190.53264 C 191.98628,190.45687 191.44983,190.30314 191.20285,190.19102 C 190.95587,190.0789 190.43109,189.93083 190.03667,189.86199 C 189.64224,189.79314 189.11256,189.64206 188.85959,189.52625 C 188.60663,189.41044 188.25878,189.29297 188.08661,189.26521 C 187.39382,189.15351 186.90638,189.02472 186.43284,188.82825 C 186.15916,188.7147 185.61273,188.5655 185.21855,188.4967 C 184.82438,188.4279 184.3259,188.28244 184.11083,188.17345 C 183.89577,188.06447 183.37714,187.91617 182.95832,187.84389 C 182.53951,187.77162 182.02885,187.63627 181.82351,187.54311 C 181.32296,187.31603 181.02059,187.32635 180.71816,187.58082 C 180.58038,187.69675 180.41657,187.7916 180.35412,187.7916 C 180.29167,187.7916 180.06062,187.92897 179.84066,188.09687 C 179.6207,188.26477 179.32298,188.45134 179.17907,188.51147 C 179.03516,188.5716 178.8423,188.70532 178.7505,188.80862 C 178.65869,188.91193 178.42403,189.06785 178.22901,189.15511 C 178.034,189.24238 177.76842,189.40227 177.63883,189.51041 C 177.50924,189.61856 177.27043,189.77363 177.10813,189.855 C 176.94583,189.93638 176.71819,190.08986 176.60226,190.19607 C 176.48633,190.30229 176.21198,190.47253 175.9926,190.57438 C 175.50255,190.80191 175.29791,191.11652 175.17031,191.83857 C 175.11705,192.13998 175.00273,192.67114 174.91628,193.01893 C 174.82982,193.36672 174.69766,194.28466 174.62258,195.0588 C 174.5475,195.83295 174.39615,196.83837 174.28624,197.29306 C 174.17634,197.74776 174.0248,198.7458 173.94949,199.51093 C 173.87418,200.27606 173.71834,201.29478 173.60316,201.77476 C 173.48799,202.25473 173.3548,203.05148 173.30719,203.5453 C 173.16323,205.03843 173.08499,205.16435 172.17243,205.3717 C 171.84974,205.44503 171.32013,205.61312 170.99553,205.74525 C 170.67093,205.87737 170.19668,206.01228 169.94163,206.04505 C 169.68659,206.07782 169.23131,206.21163 168.92989,206.34242 C 168.62848,206.47321 168.04196,206.64381 167.62651,206.72154 C 167.21107,206.79927 166.688,206.95863 166.46414,207.07569 C 166.2371,207.1944 165.77839,207.32866 165.42675,207.37933 L 164.79637,207.47014 L 164.28721,206.92624 C 164.00717,206.6271 163.63465,206.23058 163.45938,206.04509 C 162.9911,205.5495 160.67394,202.90453 160.31191,202.45235 C 160.14066,202.23845 159.79962,201.8496 159.55406,201.58822 C 159.30849,201.32684 158.95581,200.93553 158.77033,200.71863 C 158.41451,200.30255 157.97979,199.81875 157.42134,199.21735 C 157.23585,199.01759 156.93233,198.67506 156.74685,198.45616 C 155.91775,197.4777 155.39675,196.99891 155.06061,196.90656 C 154.84496,196.84731 153.64008,196.81373 151.71891,196.81343 L 148.71445,196.81296 L 148.26212,197.19044 C 148.01335,197.39806 147.6201,197.79972 147.38824,198.08302 C 146.80503,198.79563 145.02382,200.84065 144.24235,201.69485 C 143.88588,202.0845 143.46962,202.53978 143.31733,202.70659 C 142.75277,203.32498 141.05426,205.29612 140.84017,205.58138 C 140.71835,205.74368 140.37761,206.13087 140.08297,206.44181 C 139.78832,206.75274 139.48523,207.09421 139.40942,207.20061 C 139.2015,207.49246 138.31283,207.46601 137.56593,207.14576 C 137.26451,207.01652 136.71438,206.84591 136.34341,206.76663 C 135.97244,206.68736 135.40865,206.51816 135.09055,206.39064 C 134.77246,206.26313 134.20335,206.10057 133.82588,206.02939 C 133.4484,205.95822 132.96227,205.81018 132.74558,205.7004 C 132.52888,205.59062 132.07974,205.45592 131.74748,205.40104 C 131.41522,205.34617 131.06944,205.24099 130.9791,205.16731 C 130.86021,205.07036 130.77049,204.78877 130.65432,204.14808 C 130.56604,203.66118 130.43579,203.03516 130.36488,202.75693 C 130.29397,202.47871 130.17478,201.62505 130.10001,200.85992 C 130.02525,200.09479 129.87332,199.08937 129.76241,198.62566 C 129.6515,198.16195 129.50224,197.1755 129.43074,196.43355 C 129.35922,195.69161 129.20793,194.68619 129.09452,194.19929 C 128.98111,193.71239 128.84708,192.90071 128.79666,192.39555 C 128.6773,191.19967 128.50921,190.88979 127.78577,190.53197 C 127.62347,190.45169 127.39582,190.29751 127.2799,190.18933 C 127.16397,190.08116 126.92826,189.93381 126.75608,189.86189 C 126.58392,189.78998 126.31834,189.62235 126.1659,189.48939 C 126.01347,189.35643 125.80089,189.22022 125.69351,189.18668 C 125.58613,189.15315 125.37231,189.01511 125.21835,188.87994 C 125.06439,188.74476 124.8046,188.57824 124.64102,188.5099 C 124.47744,188.44155 124.21804,188.27094 124.06457,188.13077 C 123.9111,187.9906 123.74229,187.87591 123.68945,187.87591 C 123.6366,187.87591 123.45014,187.76209 123.27509,187.62298 C 122.89797,187.32328 122.64111,187.30668 122.04103,187.54322 C 121.7994,187.63846 121.29528,187.77417 120.92077,187.84479 C 120.54628,187.91541 119.97428,188.07799 119.64968,188.20608 C 119.32508,188.33417 118.79038,188.48239 118.46145,188.53546 C 118.13252,188.58853 117.65561,188.72708 117.40165,188.84335 C 117.14769,188.95962 116.63784,189.10748 116.26866,189.17193 C 115.89947,189.23638 115.34496,189.39011 115.0364,189.51355 C 114.72783,189.637 114.15993,189.79711 113.77438,189.86936 C 113.38882,189.94161 112.8805,190.09151 112.64479,190.20247 C 112.40906,190.31343 111.8807,190.46272 111.47064,190.53423 C 111.06059,190.60574 110.55156,190.75131 110.33947,190.85774 C 109.3269,191.3658 109.14354,191.29139 108.01466,189.91431 C 107.92192,189.80117 107.70706,189.55235 107.53719,189.36136 C 107.36732,189.17038 107.02586,188.78356 106.77838,188.50175 C 106.53091,188.21995 106.22509,187.87849 106.09879,187.74295 C 105.88532,187.51387 105.17651,186.68876 104.11525,185.43395 C 103.75379,185.00657 103.67261,184.85287 103.67261,184.59585 C 103.67261,184.17034 103.89503,183.44988 104.14128,183.07779 C 104.25234,182.90996 104.39839,182.58929 104.46583,182.36519 C 104.53328,182.14108 104.68361,181.81395 104.79989,181.63823 C 104.91618,181.46251 105.07145,181.1119 105.14495,180.8591 C 105.21843,180.60631 105.3716,180.27336 105.48531,180.11923 C 105.59903,179.96511 105.74871,179.64596 105.81794,179.41001 C 105.88718,179.17407 106.03617,178.84617 106.14904,178.68134 C 106.26191,178.51652 106.41089,178.19097 106.4801,177.95791 C 106.54931,177.72486 106.721,177.32855 106.86162,177.07723 C 107.00224,176.82592 107.14301,176.47912 107.17443,176.30656 C 107.20584,176.134 107.34011,175.82165 107.47278,175.61244 C 107.60547,175.40323 107.77309,175.02887 107.84528,174.78054 C 107.91747,174.53221 108.06957,174.20292 108.18329,174.04879 C 108.297,173.89466 108.44706,173.57551 108.51675,173.33957 C 108.58644,173.10362 108.75792,172.73985 108.8978,172.53118 C 109.25266,172.00185 109.25394,171.44102 108.90147,170.92086 C 108.76318,170.71681 108.58958,170.34442 108.51567,170.09334 C 108.44176,169.84226 108.28814,169.5008 108.1743,169.33454 C 108.06045,169.16827 107.91066,168.8392 107.84142,168.60325 C 107.77219,168.36731 107.62251,168.04816 107.50879,167.89403 C 107.39508,167.7399 107.24362,167.4128 107.1722,167.16714 C 107.10079,166.92148 106.92236,166.51976 106.7757,166.27444 C 106.62905,166.02911 106.46372,165.75166 106.40829,165.65788 C 106.24375,165.37944 105.50996,165.03657 104.7838,164.89882 C 104.41031,164.82797 103.90109,164.67677 103.6522,164.56283 C 103.4033,164.44888 102.8821,164.29541 102.49398,164.22179 C 102.10586,164.14816 101.61186,163.99851 101.39619,163.88923 C 101.18053,163.77994 100.69443,163.63179 100.31596,163.55999 C 99.937491,163.4882 99.444271,163.33644 99.219901,163.22275 C 98.995551,163.10906 98.492351,162.95541 98.101691,162.88132 C 97.711021,162.80722 97.219101,162.65652 97.008541,162.54643 C 96.797961,162.43634 96.289421,162.28326 95.878441,162.20625 C 95.467461,162.12924 94.954731,161.9768 94.739031,161.8675 C 94.523331,161.7582 94.197191,161.6431 94.014261,161.61173 C 93.142371,161.46221 93.060161,161.41778 92.835651,160.97475 C 92.568271,160.44709 92.486771,160.01713 92.329881,158.30631 C 92.260911,157.55428 92.112081,156.51093 91.999131,155.98774 C 91.764591,154.90122 91.572211,153.24124 91.646521,152.94516 C 91.727561,152.62228 92.026001,152.30508 92.451691,152.08937 C 92.670291,151.97859 92.901141,151.82532 92.964681,151.74875 C 93.028221,151.67219 93.227081,151.53462 93.406591,151.44304 C 93.586091,151.35146 93.904551,151.14556 94.114261,150.98549 C 94.323971,150.82541 94.549461,150.69444 94.615361,150.69444 C 94.681261,150.69444 94.875961,150.56165 95.048031,150.39935 C 95.220101,150.23705 95.406981,150.10426 95.463321,150.10426 C 95.519671,150.10426 95.737351,149.97329 95.947061,149.81321 C 96.156771,149.65314 96.475221,149.44724 96.654731,149.35566 C 96.834241,149.26408 97.032941,149.1267 97.096291,149.05036 C 97.159651,148.97402 97.358351,148.83664 97.537861,148.74506 C 97.717371,148.65348 98.035821,148.44759 98.245531,148.28751 C 98.455241,148.12743 98.674221,147.99646 98.732131,147.99646 C 98.790061,147.99646 98.929421,147.89646 99.041851,147.77423 C 99.154271,147.65201 99.405801,147.48025 99.600821,147.39255 C 99.795831,147.30484 100.06141,147.14445 100.191,147.03612 C 100.32058,146.92778 100.58091,146.76085 100.7695,146.66516 C 100.95809,146.56947 101.16437,146.42854 101.22791,146.35197 C 101.29145,146.27541 101.51656,146.12497 101.72815,146.01767 C 101.93973,145.91038 102.18036,145.74786 102.26288,145.65653 C 102.34541,145.56519 102.56663,145.42116 102.75448,145.33645 C 103.02394,145.21494 103.14571,145.08347 103.33147,144.71351 C 103.58103,144.21652 103.68668,143.61467 103.84301,141.79955 C 103.89093,141.24309 104.02872,140.3739 104.1492,139.86801 C 104.45893,138.56739 104.45641,138.15642 104.13632,137.77506 C 103.99721,137.60931 103.69369,137.23877 103.46183,136.95162 C 102.99918,136.37864 102.46855,135.74457 102.01545,135.22324 C 101.85424,135.03775 101.58256,134.72483 101.41172,134.52785 C 101.24088,134.33087 100.94934,134.00256 100.76386,133.79827 C 100.57837,133.59398 100.23691,133.19055 100.00505,132.90176 C 99.328491,132.05906 98.389791,130.94912 97.440551,129.86944 C 96.248831,128.51395 95.758741,127.93868 95.587791,127.69464 C 95.364031,127.37521 95.337651,126.96711 95.517951,126.61448 C 95.586551,126.48029 95.668341,126.25129 95.699701,126.10558 C 95.731051,125.95988 95.867161,125.66649 96.002161,125.45362 C 96.137161,125.24074 96.306691,124.86339 96.378891,124.61506 C 96.451071,124.36673 96.603181,124.03744 96.716891,123.88331 C 96.830601,123.72918 96.983771,123.39624 97.057261,123.14344 C 97.130751,122.89064 97.282551,122.54529 97.394571,122.376 C 97.506611,122.20671 97.653451,121.88484 97.720891,121.66074 C 97.788341,121.43663 97.935051,121.11469 98.046921,120.94529 C 98.158791,120.7759 98.298411,120.48554 98.357191,120.30006 C 98.509251,119.82028 98.660571,119.60836 98.973021,119.43762 C 99.226231,119.29926 99.748291,119.28523 106.10129,119.24616 L 112.95633,119.20401 L 113.45942,118.65598 C 113.73613,118.35457 114.12289,117.92749 114.31891,117.7069 C 115.08731,116.8422 115.27677,116.62751 115.57968,116.27819 C 115.75248,116.0789 116.02626,115.76409 116.18806,115.5786 C 117.07142,114.56597 117.34054,114.2214 117.38432,114.04698 C 117.45139,113.77974 117.18261,110.72569 117.029,110.00959 C 116.77268,108.81474 116.73436,108.54977 116.61512,107.14743 C 116.54808,106.35911 116.39908,105.25333 116.28399,104.69015 C 116.08547,103.71857 115.8135,101.24834 115.8135,100.41669 C 115.8135,99.91363 115.94665,99.63668 116.24867,99.51159 C 116.38323,99.45584 116.63165,99.30032 116.80071,99.16597 C 116.96976,99.03163 117.2626,98.85253 117.45145,98.76798 C 117.64031,98.68344 117.86994,98.52975 117.96174,98.42644 C 118.05353,98.32314 118.2464,98.18943 118.39031,98.12929 C 118.53422,98.06916 118.83194,97.88259 119.0519,97.71469 C 119.27186,97.5468 119.50617,97.40942 119.5726,97.40942 C 119.63903,97.40942 119.8159,97.29233 119.96566,97.14921 C 120.11541,97.0061 120.36601,96.8355 120.52255,96.77009 C 120.67908,96.70469 120.93312,96.54058 121.08707,96.4054 C 121.24103,96.27023 121.45486,96.13228 121.56223,96.09885 C 121.66962,96.06542 121.8968,95.91308 122.06708,95.76031 C 122.27596,95.57291 122.49911,95.46419 122.75301,95.42613 C 123.1565,95.36562 123.35337,95.4343 123.77006,95.78099 C 123.90318,95.89175 124.14979,96.03989 124.31808,96.11019 C 124.48638,96.18049 124.71893,96.32883 124.83486,96.43984 C 124.95078,96.55084 125.18333,96.69919 125.35163,96.76949 C 125.51992,96.83979 125.76653,96.98823 125.89965,97.09935 C 126.03277,97.21048 126.27448,97.36897 126.43678,97.45158 C 126.59908,97.53419 126.84078,97.69269 126.9739,97.80381 C 127.10702,97.91493 127.34848,98.06123 127.51048,98.12892 C 127.67248,98.1966 127.93099,98.36259 128.08494,98.49776 C 128.23891,98.63293 128.45273,98.77104 128.56011,98.80467 C 128.66749,98.83829 128.86509,98.95756 128.99923,99.06971 C 129.13336,99.18186 129.42029,99.36342 129.63686,99.47316 C 129.85343,99.5829 130.08461,99.73774 130.1506,99.81725 C 130.21658,99.89677 130.44184,100.03495 130.65117,100.12434 C 130.8605,100.21373 131.12662,100.37726 131.24255,100.48775 C 131.35848,100.59824 131.58914,100.74537 131.75513,100.81471 C 131.92112,100.88405 132.10844,101.00284 132.17139,101.07869 C 132.23435,101.15454 132.47794,101.31359 132.71271,101.43212 C 132.94748,101.55066 133.24847,101.7388 133.3816,101.85022 C 133.51471,101.96165 133.75524,102.1078 133.91608,102.175 C 134.07693,102.24222 134.32008,102.39106 134.45641,102.50577 C 134.84818,102.83543 135.19837,102.85969 135.76934,102.59672 C 136.0387,102.47266 136.66522,102.28081 137.1616,102.17039 C 137.65798,102.05996 138.21767,101.89127 138.40536,101.79552 C 138.59306,101.69976 139.05956,101.56208 139.44203,101.48956 C 139.8245,101.41704 140.44975,101.22209 140.83147,101.05634 C 141.49963,100.7662 141.53787,100.73427 141.85746,100.19933 C 142.04005,99.89373 142.22754,99.50085 142.27411,99.32628 C 142.32068,99.15171 142.45561,98.89381 142.57394,98.75318 C 142.69228,98.61255 142.84734,98.30137 142.91852,98.06167 C 142.9897,97.82197 143.14009,97.48661 143.25271,97.31643 C 143.36533,97.14625 143.5176,96.80017 143.59109,96.54737 C 143.66458,96.29457 143.81948,95.95929 143.93531,95.80229 C 144.05113,95.6453 144.18548,95.36409 144.23386,95.17738 C 144.28223,94.99067 144.4472,94.62924 144.60045,94.3742 C 144.7537,94.11916 144.92773,93.75873 144.98717,93.57324 C 145.04662,93.38775 145.18097,93.12217 145.28574,92.98306 C 145.39051,92.84394 145.53742,92.51811 145.61221,92.25898 C 145.687,91.99985 145.84123,91.66173 145.95494,91.5076 C 146.06866,91.35347 146.22239,91.01859 146.29657,90.76343 C 146.37074,90.50827 146.52458,90.16345 146.63843,89.99719 C 146.75227,89.83093 146.90194,89.5052 146.97102,89.27334 C 147.04636,89.02049 147.24418,88.68308 147.46532,88.43022 L 147.83402,88.00867 L 151.86888,87.9917 C 154.20156,87.98189 155.98467,88.00776 156.09561,88.05302 z M 148.35783,125.90524 C 148.05641,125.9554 147.48731,126.08895 147.09315,126.20201 C 146.699,126.31507 146.11092,126.44877 145.78632,126.49913 C 145.46172,126.54949 145.04175,126.68101 144.85305,126.7914 C 144.66435,126.90178 144.25466,127.0513 143.94262,127.12367 C 143.63058,127.19603 143.23484,127.35139 143.06319,127.46889 C 142.89154,127.5864 142.55147,127.7411 142.30748,127.81267 C 142.06349,127.88425 141.75997,128.02826 141.63299,128.1327 C 141.50601,128.23714 141.23392,128.38856 141.02835,128.46917 C 140.82278,128.54979 140.54313,128.70954 140.40691,128.82416 C 140.27069,128.93878 140.02154,129.09009 139.85324,129.16039 C 139.68495,129.23069 139.4524,129.37672 139.33647,129.48489 C 139.22054,129.59306 139.00875,129.74049 138.86581,129.81251 C 138.59102,129.95098 138.10214,130.32181 137.49234,130.85432 C 137.02361,131.26364 134.93338,133.35557 134.48855,133.86055 C 133.83021,134.6079 132.89152,135.90019 132.80573,136.17728 C 132.77248,136.28467 132.63753,136.49524 132.50584,136.64523 C 132.37415,136.79521 132.20019,137.08676 132.11926,137.2931 C 132.03833,137.49945 131.88729,137.77143 131.7836,137.89752 C 131.67992,138.0236 131.52997,138.32712 131.45037,138.57201 C 131.37078,138.8169 131.21761,139.13537 131.11,139.27973 C 131.00239,139.42408 130.85394,139.80263 130.78011,140.12096 C 130.70629,140.43929 130.54913,140.86484 130.43087,141.06664 C 130.30103,141.28819 130.17105,141.70644 130.10276,142.12242 C 130.04056,142.5013 129.89617,143.0579 129.78187,143.35932 C 129.65103,143.7044 129.53971,144.25079 129.48128,144.83477 C 129.3232,146.4147 129.2181,148.41557 129.26254,148.99901 C 129.28588,149.30548 129.34424,150.12533 129.39222,150.82091 C 129.50253,152.41981 129.59617,153.01755 129.81323,153.50825 C 129.90832,153.72323 130.03858,154.22314 130.1027,154.61916 C 130.17537,155.06813 130.30053,155.47791 130.43516,155.70763 C 130.55391,155.91026 130.69235,156.27846 130.7428,156.52586 C 130.79326,156.77325 130.94469,157.15741 131.07933,157.37955 C 131.21397,157.60169 131.38342,157.9874 131.45589,158.23668 C 131.52836,158.48597 131.64906,158.74053 131.72412,158.80238 C 131.79917,158.86423 131.98615,159.1899 132.13962,159.52609 C 132.29309,159.86229 132.45311,160.13735 132.49522,160.13735 C 132.53734,160.13735 132.67157,160.33654 132.79353,160.57999 C 133.00327,160.9987 133.29597,161.41806 133.83139,162.06699 C 133.96097,162.22404 134.10741,162.42537 134.15682,162.51438 C 134.43952,163.02375 137.38256,165.96385 137.89491,166.24874 C 137.97951,166.29578 138.17722,166.44063 138.33427,166.57063 C 138.88269,167.02459 139.54953,167.48367 139.84119,167.60808 C 140.00286,167.67704 140.21192,167.80559 140.30576,167.89375 C 140.3996,167.98191 140.70364,168.154 140.9814,168.27616 C 141.25916,168.39833 141.5623,168.56744 141.65505,168.65196 C 141.74779,168.73649 142.03072,168.86641 142.28379,168.94067 C 142.53685,169.01493 142.87831,169.16869 143.04259,169.28237 C 143.20687,169.39604 143.60424,169.54993 143.92562,169.62435 C 144.24701,169.69876 144.66435,169.84963 144.85305,169.95962 C 145.05194,170.07555 145.51506,170.2146 145.95494,170.29045 C 146.37229,170.36241 146.93105,170.49768 147.19665,170.59104 C 147.95237,170.85668 148.65469,170.92788 151.0558,170.98223 C 153.81979,171.0448 155.44704,170.94051 156.45176,170.63639 C 156.84591,170.51709 157.50987,170.36115 157.92721,170.28986 C 158.37971,170.21257 158.82799,170.07735 159.03773,169.95489 C 159.23118,169.84194 159.64852,169.69012 159.96516,169.61751 C 160.2818,169.54489 160.67946,169.39038 160.84884,169.27416 C 161.01823,169.15793 161.34072,169.00776 161.56549,168.94045 C 161.79027,168.87314 162.12593,168.7104 162.31142,168.57881 C 162.49691,168.44721 162.78791,168.29427 162.95809,168.23894 C 163.12828,168.18361 163.31571,168.08028 163.37461,168.00931 C 163.43351,167.93834 163.69264,167.77335 163.95045,167.64267 C 164.20827,167.51199 164.51119,167.30641 164.62361,167.18583 C 164.73603,167.06526 164.87148,166.9666 164.92461,166.9666 C 164.97773,166.9666 165.17031,166.8415 165.35254,166.6886 C 165.53478,166.5357 165.80363,166.33651 165.94998,166.24596 C 166.73127,165.76256 169.52341,162.96356 169.85688,162.32946 C 169.91784,162.21353 170.11361,161.95209 170.29192,161.74848 C 170.47024,161.54488 170.61613,161.33334 170.61613,161.27839 C 170.61613,161.22344 170.70801,161.09216 170.82032,160.98666 C 170.93263,160.88115 171.13628,160.56086 171.27287,160.2749 C 171.40946,159.98894 171.58122,159.70518 171.65454,159.64433 C 171.72787,159.58347 171.83374,159.39444 171.88982,159.22426 C 171.94589,159.05408 172.11856,158.73036 172.27353,158.50489 C 172.4285,158.27942 172.5553,158.02608 172.5553,157.94191 C 172.5553,157.85774 172.68885,157.53266 172.85208,157.2195 C 173.01531,156.90634 173.20653,156.40142 173.27703,156.09745 C 173.34752,155.79348 173.48403,155.41145 173.58037,155.24848 C 173.67671,155.08552 173.8262,154.56101 173.91256,154.08292 C 173.99892,153.60483 174.16661,152.86499 174.2852,152.43884 C 174.7404,150.80311 174.74611,146.17465 174.29505,144.45537 C 174.17948,144.01484 174.0225,143.29398 173.94622,142.85345 C 173.86993,142.41292 173.70056,141.80587 173.56984,141.50446 C 173.43911,141.20305 173.29245,140.76673 173.24393,140.53488 C 173.1954,140.30302 173.02061,139.85446 172.8555,139.53809 C 172.69039,139.22171 172.5553,138.89495 172.5553,138.81195 C 172.5553,138.72895 172.44374,138.52067 172.30739,138.34909 C 172.17104,138.17752 171.99823,137.85273 171.92336,137.62734 C 171.8485,137.40195 171.72816,137.1685 171.65595,137.10857 C 171.58374,137.04864 171.41472,136.77267 171.28037,136.4953 C 171.14601,136.21794 170.99652,135.96655 170.94816,135.93666 C 170.86193,135.88337 170.59454,135.51503 169.97124,134.5909 C 169.79922,134.33585 169.56094,134.02712 169.44173,133.90481 C 169.32252,133.7825 169.05425,133.48978 168.84558,133.25431 C 167.92138,132.21143 166.45226,130.81499 165.95977,130.51128 C 165.80804,130.4177 165.53478,130.21604 165.35254,130.06314 C 165.17031,129.91023 164.97773,129.78513 164.92461,129.78513 C 164.87148,129.78513 164.73603,129.68571 164.62361,129.56419 C 164.51119,129.44267 164.2568,129.27278 164.05828,129.18667 C 163.85977,129.10054 163.55625,128.92011 163.38379,128.78569 C 163.21133,128.65127 162.94081,128.49851 162.78264,128.44622 C 162.62447,128.39393 162.37785,128.26227 162.23462,128.15366 C 162.09137,128.04505 161.78344,127.8932 161.55032,127.81622 C 161.3172,127.73925 160.99012,127.58361 160.82349,127.47039 C 160.65686,127.35716 160.26603,127.20549 159.95499,127.13336 C 159.64394,127.06123 159.23006,126.90879 159.03525,126.79463 C 158.80878,126.66191 158.39308,126.541 157.88257,126.45936 C 157.44341,126.38913 156.7616,126.23316 156.36744,126.11277 C 155.92553,125.97779 155.29525,125.86644 154.72336,125.82231 C 153.5194,125.72941 149.0657,125.78742 148.35783,125.90524 z"
       style="fill:#ffffff;fill-opacity:1;stroke:#000000;stroke-width:1.3489877;stroke-miterlimit:4;stroke-dasharray:none;stroke-opacity:1" />
  </g>
</svg>
