<?xml version="1.0" encoding="UTF-8" standalone="no"?>
<!-- Created with Inkscape (http://www.inkscape.org/) -->
<svg
   xmlns:dc="http://purl.org/dc/elements/1.1/"
   xmlns:cc="http://creativecommons.org/ns#"
   xmlns:rdf="http://www.w3.org/1999/02/22-rdf-syntax-ns#"
   xmlns:svg="http://www.w3.org/2000/svg"
   xmlns="http://www.w3.org/2000/svg"
   xmlns:sodipodi="http://sodipodi.sourceforge.net/DTD/sodipodi-0.dtd"
   xmlns:inkscape="http://www.inkscape.org/namespaces/inkscape"
   width="256"
   height="256"
   id="svg2"
   sodipodi:version="0.32"
   inkscape:version="0.46"
   version="1.0"
   sodipodi:docname="loading.svg"
   inkscape:output_extension="org.inkscape.output.svg.inkscape">
  <sodipodi:namedview
     id="base"
     pagecolor="#ffffff"
     bordercolor="#666666"
     borderopacity="1.0"
     gridtolerance="10000"
     guidetolerance="10"
     objecttolerance="10"
     inkscape:pageopacity="0.0"
     inkscape:pageshadow="2"
     inkscape:zoom="1"
     inkscape:cx="328.8"
     inkscape:cy="90"
     inkscape:document-units="px"
     inkscape:current-layer="layer1"
     showgrid="false"
     inkscape:window-width="1278"
     inkscape:window-height="775"
     inkscape:window-x="0"
     inkscape:window-y="0" />
  <defs
     id="defs4">
    <inkscape:perspective
       sodipodi:type="inkscape:persp3d"
       inkscape:vp_x="0 : 128 : 1"
       inkscape:vp_y="0 : 1000 : 0"
       inkscape:vp_z="256 : 128 : 1"
       inkscape:persp3d-origin="128 : 85.333333 : 1"
       id="perspective11" />
  </defs>
  <metadata
     id="metadata7">
    <rdf:RDF>
      <cc:Work
         rdf:about="">
        <dc:format>image/svg+xml</dc:format>
        <dc:type
           rdf:resource="http://purl.org/dc/dcmitype/StillImage" />
      </cc:Work>
    </rdf:RDF>
  </metadata>
  <g
     inkscape:label="Layer 1"
     inkscape:groupmode="layer"
     id="layer1">
    <rect
       style="opacity:1;fill:#ffffff;fill-opacity:1;stroke:none;stroke-width:4;stroke-linecap:square;stroke-linejoin:round;stroke-miterlimit:4;stroke-dasharray:none;stroke-dashoffset:0;stroke-opacity:1"
       id="rect3154"
       width="256"
       height="256"
       x="0"
       y="0"
       rx="0"
       ry="0" />
    <g
       id="g3553">
      <rect
         rx="12.999999"
         ry="13"
         y="2"
         x="3"
         height="252"
         width="250"
         id="rect2383"
         style="opacity:1;fill:#171a1b;fill-opacity:1;stroke:none;stroke-width:1;stroke-linecap:square;stroke-linejoin:round;stroke-miterlimit:4;stroke-dasharray:none;stroke-dashoffset:0;stroke-opacity:1" />
      <path
         style="fill:#ffffff;fill-opacity:1;stroke:#000000;stroke-width:1.3489877;stroke-miterlimit:4;stroke-dasharray:none;stroke-opacity:1"
         d="M 73.90696,12.261603 C 74.1201,12.372641 74.35255,12.552107 74.42352,12.660414 C 74.49449,12.768728 74.68053,12.990714 74.83695,13.153712 C 75.30709,13.643641 76.2994,14.759496 76.73551,15.28865 C 77.73449,16.50078 79.14157,18.10479 80.47189,19.54798 C 80.81788,19.92334 81.13765,20.29676 81.18247,20.37781 C 81.2273,20.45887 81.55701,20.85267 81.91514,21.25293 C 82.27329,21.65318 82.60886,22.06017 82.66086,22.15735 C 82.71288,22.25452 82.83992,22.38103 82.94319,22.43848 C 83.12614,22.54025 83.35062,22.56907 85.36522,22.74938 C 85.89849,22.79711 86.4574,22.87296 86.60725,22.91794 C 86.75709,22.96291 87.44002,23.0247 88.12486,23.05525 L 89.37003,23.11079 L 89.84252,22.74542 C 90.45387,22.27268 90.94255,21.86793 91.37978,21.47219 C 92.06841,20.8489 92.78825,20.24672 93.67082,19.5556 C 93.9373,19.34693 94.36861,18.99287 94.62928,18.7688 C 94.88995,18.54473 95.25499,18.23144 95.44048,18.0726 C 95.62596,17.91376 95.91051,17.66884 96.07281,17.52834 C 96.38284,17.25994 96.88878,16.84368 97.75905,16.14098 C 98.61528,15.44961 99.13508,15.01127 99.40313,14.754556 C 99.54224,14.621326 99.8227,14.42945 100.02636,14.328168 L 100.39665,14.144014 L 100.86948,14.372431 C 101.12953,14.498056 101.41865,14.670456 101.51197,14.755534 C 101.60529,14.840614 101.87087,14.992399 102.10215,15.09283 C 102.33343,15.19327 102.61805,15.36438 102.73464,15.47308 C 102.85122,15.58178 103.11159,15.72892 103.31325,15.80007 C 103.5149,15.87121 103.80972,16.04342 103.9684,16.18275 C 104.12709,16.32207 104.3048,16.43607 104.36333,16.43607 C 104.42185,16.43607 104.72968,16.6068 105.04739,16.81547 C 105.3651,17.02414 105.67501,17.19487 105.73607,17.19487 C 105.79714,17.19487 105.97694,17.30887 106.13562,17.4482 C 106.2943,17.58752 106.58117,17.75691 106.77308,17.82463 C 106.965,17.89235 107.32972,18.12705 107.58356,18.3462 C 108.12879,18.81692 108.14385,18.91073 107.83664,19.92281 C 107.72199,20.30049 107.56948,21.12169 107.49772,21.74771 C 107.42595,22.37372 107.2739,23.20841 107.15981,23.60257 C 107.04572,23.99672 106.89394,24.83141 106.82253,25.45742 C 106.7511,26.08344 106.59967,26.92153 106.48599,27.31985 C 106.37231,27.71818 106.22057,28.55286 106.14878,29.17471 C 106.07699,29.79656 105.92594,30.62784 105.8131,31.022 C 105.44028,32.32443 105.43572,32.2644 105.97637,33.17045 C 106.23974,33.6118 106.48442,33.97291 106.5201,33.97291 C 106.55579,33.97291 106.68557,34.15772 106.80851,34.38361 C 106.93145,34.60949 107.0922,34.84423 107.16573,34.90526 C 107.23926,34.96629 107.38757,35.18933 107.49528,35.40091 C 107.60301,35.6125 107.78975,35.87759 107.91026,35.99001 C 108.03079,36.10243 108.12939,36.24062 108.12939,36.2971 C 108.12939,36.50057 109.09242,37.68031 109.36353,37.80895 C 109.51415,37.88043 110.07981,37.99693 110.62054,38.06785 C 111.16127,38.13876 111.89996,38.29037 112.26205,38.40476 C 112.62414,38.51914 113.36398,38.6709 113.90613,38.742 C 114.44828,38.8131 115.19214,38.96614 115.55917,39.08208 C 115.9262,39.19802 116.66549,39.34734 117.20205,39.41391 C 117.73861,39.48047 118.48634,39.63245 118.86367,39.75165 C 119.24099,39.87085 119.99237,40.02317 120.53338,40.09016 C 121.60858,40.22327 122.50989,40.46627 122.80015,40.70132 C 122.94983,40.82252 122.99911,40.98219 123.05361,41.52254 C 123.13801,42.35936 123.19712,42.70164 123.39589,43.50459 C 123.4826,43.85482 123.61362,44.80333 123.68705,45.61238 C 123.76362,46.45598 123.9085,47.43152 124.02675,47.89962 C 124.14015,48.34856 124.23293,48.86477 124.23293,49.04678 C 124.23293,49.35098 124.19421,49.40664 123.75317,49.73647 C 123.4893,49.9338 123.12541,50.14747 122.94452,50.21129 C 122.76364,50.27512 122.50645,50.4192 122.37301,50.53149 C 122.23956,50.64378 121.94395,50.79757 121.71611,50.87325 C 121.48827,50.94893 121.23532,51.08436 121.154,51.17422 C 121.07269,51.26408 120.79316,51.41702 120.53283,51.51408 C 120.2725,51.61115 119.98324,51.76177 119.89003,51.84879 C 119.79682,51.93581 119.49617,52.10624 119.22193,52.22752 C 118.94768,52.34881 118.63269,52.51932 118.52194,52.60644 C 118.41119,52.69355 118.18067,52.81019 118.00967,52.86564 C 117.83868,52.92109 117.58839,53.04655 117.45348,53.14445 C 117.20551,53.3244 116.50309,53.70025 115.42072,54.23216 C 115.09523,54.39212 114.77929,54.58277 114.71867,54.65584 C 114.65803,54.72889 114.42046,54.8511 114.19073,54.9274 C 113.96101,55.00371 113.66648,55.1558 113.53623,55.2654 C 113.40598,55.375 113.09415,55.54221 112.84328,55.63701 C 112.5924,55.73179 112.21262,55.9708 111.99932,56.16813 C 111.65748,56.48437 111.60063,56.58865 111.51977,57.04768 C 111.46933,57.33411 111.32964,57.77647 111.20935,58.03072 C 111.08907,58.28497 110.93559,58.78084 110.86827,59.13265 C 110.80097,59.48446 110.65571,59.95252 110.54549,60.17278 C 110.32015,60.62307 110.06856,61.65555 110.06856,62.12997 C 110.06856,62.57989 110.27103,63.18917 110.536,63.53655 C 110.6618,63.70148 110.81501,64.00355 110.87649,64.20781 C 110.93797,64.41206 111.08195,64.70224 111.19647,64.85264 C 111.31098,65.00304 111.48488,65.3408 111.58292,65.60321 C 111.68096,65.86562 111.8152,66.12517 111.88126,66.17999 C 111.94732,66.23481 112.07949,66.48848 112.17498,66.7437 C 112.27047,66.99891 112.43948,67.32743 112.55057,67.47374 C 112.66165,67.62005 112.82954,67.9432 112.92366,68.19185 C 113.01777,68.44051 113.15419,68.70961 113.22682,68.78986 C 113.29944,68.87011 113.44947,69.16698 113.56021,69.44957 C 113.67097,69.73216 113.85646,70.08907 113.97242,70.24271 C 114.08839,70.39635 114.2227,70.66729 114.27089,70.84482 C 114.31909,71.02233 114.45478,71.2938 114.57245,71.44807 C 114.69013,71.60235 114.86453,71.93739 114.96002,72.1926 C 115.05551,72.44782 115.18767,72.70149 115.25373,72.75631 C 115.31979,72.81113 115.45346,73.06881 115.55079,73.32893 C 115.64811,73.58905 115.83924,73.9535 115.97553,74.13882 C 116.36754,74.67188 116.31979,74.88914 115.65864,75.58075 C 115.34833,75.90535 114.73414,76.5693 114.29377,77.0562 C 113.8534,77.5431 113.18734,78.2651 112.81365,78.66064 C 112.43995,79.05618 111.75581,79.7864 111.29336,80.28335 C 110.62337,81.0033 110.39275,81.1981 110.15842,81.24206 C 109.77773,81.31348 109.25186,81.16967 108.76524,80.86107 C 108.55197,80.72582 108.23628,80.58904 108.06373,80.55713 C 107.89117,80.52521 107.55349,80.38716 107.31332,80.25034 C 107.07316,80.11352 106.67876,79.9428 106.43689,79.87098 C 106.19503,79.79915 105.85447,79.64597 105.6801,79.53059 C 105.50573,79.4152 105.14652,79.26424 104.88183,79.19512 C 104.61714,79.12599 104.25716,78.97453 104.08185,78.85852 C 103.90656,78.74252 103.56535,78.59543 103.32362,78.53166 C 103.08189,78.4679 102.74509,78.32372 102.57519,78.21129 C 102.40528,78.09885 102.04458,77.94241 101.77363,77.86363 C 101.50268,77.78487 101.13714,77.62522 100.96131,77.50887 C 100.78548,77.39251 100.42506,77.24076 100.16037,77.17164 C 99.89569,77.10251 99.53987,76.95381 99.36968,76.84118 C 99.19948,76.72855 98.86475,76.57834 98.62582,76.5074 C 98.38689,76.43644 97.97098,76.26244 97.70157,76.12072 C 97.14237,75.82656 96.9006,75.8363 96.39105,76.1735 C 96.21677,76.28883 95.87469,76.42446 95.63086,76.47489 C 95.38704,76.52531 94.99282,76.67454 94.75483,76.80651 C 94.51683,76.93847 94.08052,77.10808 93.78524,77.18342 C 93.48997,77.25875 93.10769,77.4122 92.93575,77.5244 C 92.76381,77.6366 92.44131,77.76824 92.2191,77.81695 C 91.99688,77.86566 91.75021,77.92515 91.67095,77.94917 C 91.46787,78.01069 90.78047,79.07307 90.63848,79.54487 C 90.57322,79.76173 90.42467,80.08294 90.30839,80.25866 C 90.19209,80.43438 90.03683,80.78499 89.96333,81.03779 C 89.88985,81.29059 89.73668,81.62353 89.62297,81.77766 C 89.50925,81.93179 89.35609,82.26473 89.2826,82.51753 C 89.2091,82.77033 89.05731,83.11568 88.94528,83.28497 C 88.83325,83.45426 88.68641,83.77613 88.61896,84.00023 C 88.55152,84.22434 88.40119,84.55146 88.2849,84.72718 C 88.16861,84.90291 88.01335,85.25351 87.93985,85.50631 C 87.86636,85.75911 87.7132,86.09205 87.59948,86.24618 C 87.48577,86.40032 87.33609,86.71946 87.26686,86.95541 C 87.19762,87.19135 87.04783,87.52042 86.93398,87.68668 C 86.82013,87.85295 86.6663,88.19776 86.59212,88.45292 C 86.51794,88.70809 86.36421,89.04297 86.2505,89.19709 C 86.13678,89.35123 85.98267,89.68934 85.90802,89.94847 C 85.76316,90.45129 85.57013,90.71073 85.14574,90.97302 C 84.90502,91.12179 84.8513,91.12594 84.54863,91.01915 C 84.32885,90.94162 83.25991,90.85488 81.39708,90.76345 C 79.84666,90.68735 78.32132,90.58835 78.00746,90.54343 C 77.69359,90.49852 77.28766,90.46177 77.10539,90.46177 C 76.83014,90.46177 76.73898,90.41535 76.56723,90.18776 C 76.24563,89.76159 75.92157,88.90405 75.78376,88.11448 C 75.71466,87.71863 75.56813,87.18092 75.45813,86.91958 C 75.34814,86.65824 75.19831,86.09958 75.12518,85.67809 C 75.05205,85.25661 74.89504,84.69948 74.77626,84.44004 C 74.65748,84.1806 74.5069,83.63667 74.44164,83.23131 C 74.37638,82.82596 74.23004,82.28564 74.11645,82.0306 C 74.00286,81.77555 73.84891,81.21337 73.77432,80.78131 C 73.69975,80.34924 73.54606,79.78619 73.4328,79.5301 C 73.31955,79.27399 73.16659,78.71694 73.09291,78.29219 C 72.86974,77.00575 72.53177,76.57212 71.20962,75.87584 C 70.98949,75.75991 70.67931,75.56542 70.52032,75.44364 C 70.36134,75.32185 70.09358,75.17815 69.92529,75.1243 C 69.75701,75.07044 69.55511,74.95544 69.47664,74.86872 C 69.39818,74.78201 69.13749,74.62775 68.89735,74.52591 C 68.6572,74.42407 68.36533,74.2513 68.24874,74.14199 C 67.98756,73.89709 67.40361,73.68364 66.99574,73.684 C 66.47788,73.68446 65.22231,73.93526 64.63932,74.1547 C 64.33442,74.26947 63.72262,74.42161 63.27977,74.4928 C 62.83692,74.56398 62.3068,74.69638 62.10173,74.78701 C 61.89665,74.87764 61.40342,75.01085 61.00567,75.08305 C 60.60792,75.15524 59.92205,75.32554 59.48152,75.46148 C 59.04099,75.59744 58.35447,75.76551 57.95592,75.83498 C 57.55737,75.90444 56.96234,76.05524 56.63364,76.17008 C 56.30493,76.28492 55.70149,76.43617 55.29264,76.50619 C 54.88379,76.5762 54.40291,76.69827 54.22402,76.77745 C 53.90272,76.91964 53.89332,76.91856 53.45479,76.68895 C 53.12043,76.51389 52.97411,76.37505 52.86203,76.12652 C 52.78019,75.94503 52.6385,75.729 52.54717,75.64648 C 52.45583,75.56395 52.29411,75.32571 52.18779,75.11703 C 52.08146,74.90836 51.89586,74.64566 51.77534,74.53324 C 51.65482,74.42082 51.55622,74.28213 51.55622,74.22504 C 51.55622,74.16795 51.42382,73.96278 51.26201,73.76911 C 51.1002,73.57543 50.89668,73.25883 50.80975,73.06556 C 50.72282,72.87229 50.55168,72.62218 50.42946,72.50975 C 50.30723,72.39733 50.20723,72.25865 50.20723,72.20156 C 50.20723,72.14447 50.07144,71.93524 49.90548,71.73659 C 49.73951,71.53794 49.51123,71.19289 49.39818,70.96981 C 49.28514,70.74673 49.15811,70.5642 49.11588,70.5642 C 49.01226,70.5642 48.60531,69.69207 48.60531,69.47001 C 48.60531,69.24944 48.88257,68.69546 49.07142,68.53873 C 49.14907,68.47429 49.34162,68.23022 49.49931,67.99635 C 49.657,67.76248 49.95642,67.34349 50.16469,67.06526 C 50.37295,66.78704 50.61,66.44879 50.69147,66.31361 C 50.77292,66.17842 50.97236,65.91698 51.13466,65.73263 C 51.29696,65.54826 51.50563,65.27501 51.59837,65.1254 C 51.8502,64.71914 52.23403,64.19276 52.58904,63.7668 C 52.76293,63.55816 52.90521,63.35147 52.90521,63.3075 C 52.90521,63.26352 53.02286,63.10459 53.16666,62.9543 C 53.31046,62.80402 53.48677,62.56723 53.55845,62.42812 C 53.63014,62.28901 53.81601,62.02608 53.9715,61.84384 C 54.12697,61.6616 54.25419,61.46951 54.25419,61.41698 C 54.25419,61.36444 54.3714,61.21003 54.51466,61.07383 C 54.65791,60.93763 54.83381,60.71238 54.90555,60.57326 C 54.97728,60.43415 55.1636,60.17794 55.31958,60.00391 C 55.47556,59.82988 55.60318,59.65198 55.60318,59.60856 C 55.60318,59.56515 55.75494,59.35428 55.94043,59.13996 C 56.12591,58.92565 56.27768,58.71139 56.27768,58.66383 C 56.27768,58.61626 56.39392,58.41547 56.53601,58.21762 L 56.79435,57.85789 L 56.58192,56.98131 C 56.46509,56.4992 56.3089,55.45056 56.23483,54.651 C 56.0252,52.38804 55.86424,51.91112 55.10357,51.29897 C 54.81546,51.06711 54.42112,50.74281 54.22726,50.57829 C 54.03341,50.41378 53.77994,50.21311 53.66401,50.13237 C 53.54808,50.05162 53.23938,49.82579 52.97801,49.63052 C 52.71663,49.43525 52.34119,49.16167 52.1437,49.02255 C 51.94619,48.88344 51.68579,48.67314 51.56502,48.55521 C 51.44425,48.4373 51.20316,48.25399 51.02927,48.14785 C 50.85538,48.04173 50.7131,47.92166 50.7131,47.88102 C 50.7131,47.84039 50.53288,47.70366 50.31262,47.57718 C 50.09236,47.4507 49.77068,47.23094 49.5978,47.08883 C 49.42491,46.94672 49.10242,46.68683 48.88115,46.51129 C 48.65987,46.33575 48.29631,46.04171 48.07323,45.85787 C 47.85014,45.67403 47.6412,45.52362 47.60892,45.52362 C 47.57663,45.52362 47.34208,45.35289 47.0877,45.14421 C 46.83331,44.93554 46.58358,44.76481 46.53274,44.76481 C 46.48189,44.76481 46.31946,44.63202 46.17177,44.46972 C 46.02408,44.30742 45.86843,44.17463 45.82588,44.17463 C 45.7042,44.17463 44.7754,43.33505 44.71328,43.16889 C 44.62864,42.94251 44.8572,41.88423 45.09051,41.42227 C 45.20421,41.19714 45.3594,40.71116 45.43535,40.34233 C 45.51132,39.97349 45.66868,39.46374 45.78506,39.20956 C 45.90142,38.95537 46.05546,38.46264 46.12734,38.11461 C 46.19924,37.76657 46.34626,37.30774 46.45408,37.09497 C 46.56188,36.88221 46.71666,36.37299 46.79801,35.96338 C 47.02861,34.80221 47.36754,34.53825 48.58566,34.57117 C 49.60968,34.59884 52.51933,34.465 52.82089,34.37635 C 53.13882,34.28289 54.54922,34.20758 58.72272,34.06123 L 61.37853,33.9681 L 62.15527,33.14847 C 62.58246,32.69767 63.23842,32.00634 63.61293,31.61218 C 64.95549,30.19921 65.4023,29.71223 65.52916,29.52369 C 65.63926,29.36006 65.65627,28.90034 65.64611,26.36201 C 65.63405,23.34945 65.51216,17.85215 65.42313,16.30566 C 65.38002,15.55686 65.392,15.44353 65.5264,15.32876 C 65.83537,15.06492 66.82723,14.583083 67.32911,14.453033 C 67.61366,14.379301 67.9909,14.227803 68.16742,14.116366 C 68.34393,14.00494 68.73821,13.85582 69.0436,13.784998 C 69.34899,13.714176 69.74115,13.563359 69.91505,13.449859 C 70.08898,13.336348 70.47286,13.181838 70.76814,13.106508 C 71.06342,13.031167 71.49973,12.862027 71.73773,12.730636 C 71.97572,12.599244 72.32043,12.465485 72.50376,12.433386 C 72.68709,12.40129 72.97962,12.302315 73.15382,12.213444 C 73.52944,12.02182 73.43511,12.015783 73.90696,12.261603 z M 82.54078,39.5578 C 82.21618,39.603 81.7609,39.71305 81.52904,39.80233 C 81.29718,39.89163 80.82577,40.01976 80.48146,40.08709 C 80.12428,40.15693 79.72601,40.29834 79.55403,40.41637 C 79.38826,40.53015 79.03792,40.70287 78.77551,40.80019 C 78.5131,40.89752 78.25005,41.0354 78.19097,41.1066 C 78.13188,41.1778 77.92924,41.31417 77.74065,41.40965 C 77.29864,41.63344 76.08874,42.70086 75.52613,43.36336 C 75.28504,43.64726 74.96354,44.02049 74.81168,44.19277 C 74.65982,44.36505 74.48787,44.64377 74.42958,44.81215 C 74.37129,44.98054 74.2149,45.2421 74.08205,45.39341 C 73.9492,45.54471 73.79443,45.85406 73.7381,46.08085 C 73.68177,46.30764 73.54209,46.62953 73.4277,46.79615 C 73.28139,47.00928 73.17165,47.37176 73.05759,48.01867 C 72.96841,48.52443 72.83798,49.24176 72.76774,49.61274 C 72.55841,50.71833 72.5805,51.0245 73.0531,53.56771 C 73.15673,54.12541 73.30343,54.62323 73.42575,54.83238 C 73.53671,55.02209 73.68413,55.36701 73.75335,55.59887 C 73.82257,55.83073 74.00693,56.21442 74.16303,56.45152 C 74.31913,56.68863 74.5137,56.99215 74.59542,57.12602 C 74.9821,57.75954 75.1808,57.99823 75.98275,58.79259 C 77.05479,59.85447 77.37028,60.11563 77.90893,60.38713 C 78.1437,60.50545 78.38375,60.66005 78.44237,60.73069 C 78.50099,60.80132 78.74522,60.92225 78.9851,60.99942 C 79.22498,61.07659 79.55469,61.22947 79.7178,61.33916 C 79.89239,61.45657 80.34318,61.60675 80.81386,61.70432 C 81.25358,61.79548 81.78259,61.93036 81.98943,62.00407 C 82.99665,62.36297 85.46077,62.30324 86.47626,61.89529 C 86.60042,61.84541 87.01696,61.74485 87.40188,61.67183 C 87.83498,61.58967 88.21571,61.46009 88.40076,61.33185 C 88.56521,61.21789 88.87046,61.07326 89.07908,61.01048 C 89.28771,60.94769 89.6406,60.75724 89.8633,60.58725 C 90.08601,60.41725 90.30814,60.27817 90.35693,60.27817 C 90.40572,60.27817 90.5893,60.15487 90.76488,60.00416 C 90.94047,59.85345 91.39266,59.46456 91.76976,59.13996 C 92.14685,58.81536 92.57137,58.36957 92.71313,58.1493 C 92.85488,57.92904 93.00175,57.74882 93.0395,57.74882 C 93.07726,57.74882 93.19316,57.60654 93.29707,57.43265 C 93.40097,57.25876 93.57332,57.02109 93.68007,56.9045 C 93.78682,56.78792 93.93409,56.52234 94.00736,56.31432 C 94.08062,56.10631 94.23155,55.80333 94.34277,55.64103 C 94.45398,55.47873 94.59119,55.15623 94.64765,54.92438 C 94.70412,54.69252 94.86138,54.22291 94.99713,53.88081 C 95.33326,53.03368 95.45648,51.52462 95.33411,49.75355 C 95.26125,48.69891 95.21108,48.41096 95.02827,47.99844 C 94.90798,47.72701 94.7564,47.24613 94.69142,46.92981 C 94.62091,46.58661 94.50016,46.27686 94.39199,46.16172 C 94.29228,46.05559 94.13356,45.76427 94.03925,45.51433 C 93.94496,45.26439 93.78206,44.96505 93.67727,44.84912 C 93.57248,44.73319 93.38657,44.46239 93.26415,44.24732 C 93.04409,43.86074 91.61386,42.36752 90.9513,41.83261 C 90.76301,41.6806 90.48196,41.4941 90.32674,41.41817 C 90.17152,41.34223 89.94169,41.19524 89.816,41.09153 C 89.69031,40.98781 89.40576,40.83492 89.18366,40.75174 C 88.96157,40.66857 88.64557,40.51335 88.48147,40.40682 C 88.31735,40.30028 87.8431,40.13977 87.42757,40.05014 C 87.01203,39.9605 86.52029,39.82151 86.33481,39.74126 C 85.72003,39.47529 83.80001,39.38245 82.54078,39.5578 z M 157.09561,51.59626 C 157.20693,51.64168 157.35767,51.83829 157.45468,52.06459 C 157.54663,52.27911 157.6955,52.54824 157.7855,52.66266 C 157.8755,52.77707 158.01086,53.083 158.0863,53.3425 C 158.16173,53.60201 158.31593,53.93557 158.42896,54.08375 C 158.54198,54.23193 158.69718,54.53861 158.77383,54.76525 C 158.85049,54.99189 159.00433,55.3159 159.1157,55.48529 C 159.22707,55.65469 159.37337,55.97664 159.44082,56.20075 C 159.50826,56.42485 159.65431,56.74552 159.76538,56.91334 C 159.87644,57.08117 160.0255,57.41443 160.09662,57.65393 C 160.16774,57.89341 160.33907,58.24987 160.47735,58.44604 C 160.61562,58.64221 160.76839,58.95547 160.81682,59.14218 C 160.86525,59.32889 160.99965,59.6101 161.11547,59.76709 C 161.2313,59.92409 161.3862,60.25937 161.45969,60.51217 C 161.53317,60.76497 161.68845,61.11558 161.80474,61.2913 C 161.92102,61.46703 162.07123,61.79374 162.13852,62.01734 C 162.20581,62.24094 162.35265,62.55763 162.46482,62.7211 C 162.577,62.88456 162.74737,63.23021 162.84342,63.48921 C 163.04288,64.02707 163.25569,64.25812 163.73413,64.45632 C 163.91898,64.53289 164.23089,64.66817 164.42727,64.75695 C 164.62365,64.84572 165.08604,64.9756 165.45481,65.04555 C 165.82358,65.11551 166.32686,65.26411 166.57322,65.37578 C 166.81957,65.48744 167.34363,65.63918 167.73779,65.71298 C 168.13194,65.78679 168.63559,65.94188 168.85699,66.05763 C 169.0784,66.17339 169.42158,66.2903 169.6196,66.31745 C 169.92605,66.35945 170.01882,66.33384 170.24271,66.14545 C 170.38739,66.02371 170.70817,65.83435 170.95556,65.72465 C 171.20294,65.61495 171.48046,65.44175 171.57226,65.33977 C 171.66406,65.23777 171.86664,65.10107 172.02243,65.03598 C 172.17823,64.97089 172.4207,64.82085 172.56127,64.70257 C 172.70184,64.58429 172.95454,64.42999 173.12284,64.35969 C 173.29113,64.2894 173.52368,64.14322 173.63961,64.03485 C 173.75554,63.92648 174.00657,63.75957 174.19745,63.66394 C 174.38834,63.56832 174.65392,63.39861 174.78764,63.2868 C 174.92135,63.175 175.11861,63.05602 175.22599,63.0224 C 175.33337,62.98878 175.5472,62.85067 175.70115,62.7155 C 175.85511,62.58032 176.12768,62.4093 176.30687,62.33544 C 176.48607,62.2616 176.71939,62.12105 176.82538,62.02311 C 177.01025,61.8523 177.21978,61.72073 178.19443,61.16344 C 178.43773,61.02433 178.76012,60.80605 178.91086,60.67837 C 179.06159,60.5507 179.33153,60.38592 179.51072,60.31221 C 179.68991,60.23849 179.93137,60.08887 180.0473,59.97971 C 180.16323,59.87056 180.39127,59.72561 180.55405,59.65761 C 180.71684,59.58961 180.95442,59.43723 181.08202,59.31897 C 181.35861,59.06263 181.89125,58.887 182.17562,58.95838 C 182.28806,58.9866 182.52862,59.12779 182.71021,59.27215 C 182.8918,59.4165 183.17316,59.5901 183.33546,59.65792 C 183.49776,59.72575 183.7254,59.86976 183.84133,59.97793 C 183.95726,60.0861 184.17835,60.23834 184.33265,60.31625 C 184.48695,60.39414 184.7839,60.58818 184.99253,60.74743 C 185.20116,60.90668 185.41998,61.03698 185.4788,61.03698 C 185.53762,61.03698 185.65802,61.117 185.74635,61.21482 C 185.83469,61.31263 186.11564,61.49819 186.37068,61.62716 C 186.62572,61.75613 186.90353,61.93822 186.98803,62.0318 C 187.07254,62.12537 187.26224,62.25027 187.40959,62.30936 C 187.55695,62.36844 187.78726,62.50681 187.92139,62.61683 C 188.05552,62.72685 188.34806,62.9095 188.57148,63.02271 C 189.12046,63.3009 189.19738,63.58054 189.07142,64.84046 C 188.98008,65.75414 188.93873,66.00875 188.69644,67.14958 C 188.6275,67.47418 188.51189,68.42268 188.43954,69.25737 C 188.3672,70.09206 188.21405,71.23228 188.09922,71.79121 C 187.98438,72.35013 187.83429,73.46936 187.76567,74.2784 C 187.69705,75.08743 187.56739,76.10664 187.47754,76.5433 C 187.38769,76.97995 187.33714,77.39729 187.36521,77.47072 C 187.42592,77.62952 187.9061,78.26775 188.19228,78.57001 C 188.81819,79.23109 190.80101,81.51677 191.25196,82.09702 C 191.40649,82.29585 191.67884,82.53298 191.8572,82.62397 C 192.1714,82.78427 192.3913,82.7894 198.94182,82.7894 L 205.70216,82.7894 L 206.10064,83.18988 C 206.40311,83.49387 206.5338,83.71052 206.64301,84.08903 C 206.72215,84.3633 206.88005,84.72373 206.99389,84.89 C 207.10773,85.05626 207.25753,85.38533 207.32676,85.62127 C 207.396,85.85722 207.54568,86.17637 207.65939,86.3305 C 207.77311,86.48463 207.92627,86.81756 207.99976,87.07036 C 208.07326,87.32316 208.22853,87.67378 208.34481,87.8495 C 208.4611,88.02522 208.61143,88.35234 208.67887,88.57645 C 208.74632,88.80055 208.89755,89.12905 209.01495,89.30646 C 209.27374,89.69751 209.51432,90.6193 209.43749,90.92541 C 209.40676,91.04786 209.25969,91.27482 209.11068,91.42976 C 208.96167,91.5847 208.65006,91.94653 208.4182,92.23383 C 207.93783,92.82907 207.31913,93.56472 206.92002,94.0152 C 206.77022,94.18428 206.49589,94.49724 206.3104,94.71067 C 206.12492,94.9241 205.84037,95.24493 205.67807,95.42363 C 205.51577,95.60232 205.19327,95.9879 204.96142,96.28046 C 204.50269,96.85929 203.42324,98.1443 202.94392,98.68216 C 202.63783,99.02564 202.49847,99.18507 201.30494,100.55715 C 200.86185,101.06651 200.6093,101.43234 200.57518,101.61424 C 200.50302,101.9989 200.68292,103.85211 200.87166,104.6683 C 201.03687,105.38274 201.16087,106.21391 201.28517,107.44008 C 201.37211,108.29769 201.49088,108.51199 202.06684,108.85039 C 202.27411,108.97217 202.54369,109.17179 202.66591,109.29401 C 202.78812,109.41623 202.94384,109.51622 203.01196,109.51622 C 203.08007,109.51622 203.30738,109.64719 203.51709,109.80727 C 203.7268,109.96734 204.04525,110.17324 204.22476,110.26482 C 204.40427,110.3564 204.60297,110.49378 204.66633,110.57012 C 204.72968,110.64645 204.92838,110.78384 205.10789,110.87542 C 205.2874,110.96699 205.60585,111.17289 205.81556,111.33297 C 206.02527,111.49305 206.24424,111.62402 206.30217,111.62402 C 206.36009,111.62402 206.49946,111.72402 206.61188,111.84625 C 206.7243,111.96848 206.97583,112.14024 207.17085,112.22794 C 207.36586,112.31564 207.63144,112.47603 207.76103,112.58436 C 207.89062,112.6927 208.15094,112.85963 208.33953,112.95532 C 208.52811,113.05101 208.73425,113.19176 208.7976,113.26809 C 208.86095,113.34443 209.06709,113.48417 209.25568,113.57862 C 209.44427,113.67308 209.69341,113.83903 209.80934,113.94739 C 209.92527,114.05576 210.15368,114.20021 210.31693,114.2684 C 210.48017,114.33659 210.68884,114.47583 210.78064,114.57781 C 210.87244,114.6798 211.13725,114.84753 211.36911,114.95054 C 211.60097,115.05356 211.8452,115.20385 211.91184,115.28452 C 211.97848,115.36519 212.20907,115.52041 212.42424,115.62945 C 212.81639,115.82817 213.19248,116.2314 213.29848,116.56678 C 213.32986,116.66607 213.23988,117.28617 213.09662,117.95792 C 212.95445,118.62452 212.78132,119.79593 212.71188,120.56106 C 212.64245,121.32619 212.52781,122.17984 212.45713,122.45807 C 212.38645,122.7363 212.25639,123.36232 212.16811,123.84922 C 211.97778,124.89902 211.92277,124.96217 211.07695,125.10185 C 210.74579,125.15654 210.29664,125.29445 210.07885,125.40832 C 209.86107,125.52218 209.36324,125.67597 208.97258,125.75006 C 208.58191,125.82416 208.08869,125.9726 207.87653,126.07994 C 207.66436,126.18727 207.16828,126.33951 206.77412,126.41823 C 206.37996,126.49696 205.85574,126.65535 205.60918,126.77021 C 205.36262,126.88506 204.87592,127.03356 204.52762,127.1002 C 204.17933,127.16684 203.64122,127.33099 203.33183,127.46498 C 203.02245,127.59896 202.50796,127.75282 202.18852,127.80688 C 201.86908,127.86095 201.42329,127.99865 201.19786,128.11288 C 200.97243,128.22711 200.49541,128.37656 200.1378,128.44498 C 199.13405,128.63703 198.97505,128.71363 198.48778,129.23994 C 198.1382,129.61753 198.00147,129.84529 197.89362,130.22969 C 197.81656,130.50431 197.6594,130.85656 197.54438,131.01247 C 197.42935,131.16839 197.2751,131.50279 197.20161,131.75558 C 197.12812,132.00838 196.97633,132.35373 196.8643,132.52302 C 196.75227,132.69231 196.60632,133.01121 196.53997,133.23168 C 196.47362,133.45215 196.29253,133.83009 196.13754,134.07155 C 195.87385,134.48236 195.85575,134.55718 195.85575,135.23633 C 195.85575,135.90676 195.87641,135.99536 196.12669,136.39833 C 196.27571,136.63825 196.45622,137.03182 196.52782,137.27293 C 196.59942,137.51403 196.75494,137.85117 196.87341,138.02213 C 196.99188,138.19309 197.14099,138.53073 197.20475,138.77243 C 197.26851,139.01415 197.41267,139.35092 197.52512,139.52083 C 197.63755,139.69074 197.794,140.05144 197.87276,140.32238 C 197.95153,140.59333 198.11112,140.95879 198.22741,141.13451 C 198.34369,141.31023 198.49402,141.63736 198.56146,141.86146 C 198.62891,142.08557 198.77575,142.40744 198.88778,142.57672 C 198.99982,142.74602 199.1516,143.09136 199.2251,143.34416 C 199.29859,143.59696 199.45175,143.9299 199.56547,144.08403 C 199.67918,144.23816 199.83235,144.5711 199.90584,144.8239 C 199.97933,145.0767 200.1346,145.42731 200.25089,145.60303 C 200.36717,145.77875 200.5175,146.10588 200.58494,146.32999 C 200.65239,146.55409 200.80271,146.8812 200.91898,147.05691 C 201.14726,147.40186 201.32212,148.122 201.23589,148.36204 C 201.20658,148.44364 201.06535,148.62861 200.92206,148.77309 C 200.77876,148.91758 200.52142,149.20213 200.3502,149.40543 C 200.17897,149.60873 199.8375,150.0147 199.59139,150.30758 C 198.10433,152.07718 196.90415,153.43984 196.14325,154.22252 C 195.58383,154.79795 195.42646,154.82318 194.65964,154.46041 C 194.37275,154.32469 193.80364,154.15165 193.39496,154.07588 C 192.98628,154.00011 192.44983,153.84638 192.20285,153.73426 C 191.95587,153.62214 191.43109,153.47407 191.03667,153.40523 C 190.64224,153.33638 190.11256,153.1853 189.85959,153.06949 C 189.60663,152.95368 189.25878,152.83621 189.08661,152.80845 C 188.39382,152.69675 187.90638,152.56796 187.43284,152.37149 C 187.15916,152.25794 186.61273,152.10874 186.21855,152.03994 C 185.82438,151.97114 185.3259,151.82568 185.11083,151.71669 C 184.89577,151.60771 184.37714,151.45941 183.95832,151.38713 C 183.53951,151.31486 183.02885,151.17951 182.82351,151.08635 C 182.32296,150.85927 182.02059,150.86959 181.71816,151.12406 C 181.58038,151.23999 181.41657,151.33484 181.35412,151.33484 C 181.29167,151.33484 181.06062,151.47221 180.84066,151.64011 C 180.6207,151.80801 180.32298,151.99458 180.17907,152.05471 C 180.03516,152.11484 179.8423,152.24856 179.7505,152.35186 C 179.65869,152.45517 179.42403,152.61109 179.22901,152.69835 C 179.034,152.78562 178.76842,152.94551 178.63883,153.05365 C 178.50924,153.1618 178.27043,153.31687 178.10813,153.39824 C 177.94583,153.47962 177.71819,153.6331 177.60226,153.73931 C 177.48633,153.84553 177.21198,154.01577 176.9926,154.11762 C 176.50255,154.34515 176.29791,154.65976 176.17031,155.38181 C 176.11705,155.68322 176.00273,156.21438 175.91628,156.56217 C 175.82982,156.90996 175.69766,157.8279 175.62258,158.60204 C 175.5475,159.37619 175.39615,160.38161 175.28624,160.8363 C 175.17634,161.291 175.0248,162.28904 174.94949,163.05417 C 174.87418,163.8193 174.71834,164.83802 174.60316,165.318 C 174.48799,165.79797 174.3548,166.59472 174.30719,167.08854 C 174.16323,168.58167 174.08499,168.70759 173.17243,168.91494 C 172.84974,168.98827 172.32013,169.15636 171.99553,169.28849 C 171.67093,169.42061 171.19668,169.55552 170.94163,169.58829 C 170.68659,169.62106 170.23131,169.75487 169.92989,169.88566 C 169.62848,170.01645 169.04196,170.18705 168.62651,170.26478 C 168.21107,170.34251 167.688,170.50187 167.46414,170.61893 C 167.2371,170.73764 166.77839,170.8719 166.42675,170.92257 L 165.79637,171.01338 L 165.28721,170.46948 C 165.00717,170.17034 164.63465,169.77382 164.45938,169.58833 C 163.9911,169.09274 161.67394,166.44777 161.31191,165.99559 C 161.14066,165.78169 160.79962,165.39284 160.55406,165.13146 C 160.30849,164.87008 159.95581,164.47877 159.77033,164.26187 C 159.41451,163.84579 158.97979,163.36199 158.42134,162.76059 C 158.23585,162.56083 157.93233,162.2183 157.74685,161.9994 C 156.91775,161.02094 156.39675,160.54215 156.06061,160.4498 C 155.84496,160.39055 154.64008,160.35697 152.71891,160.35667 L 149.71445,160.3562 L 149.26212,160.73368 C 149.01335,160.9413 148.6201,161.34296 148.38824,161.62626 C 147.80503,162.33887 146.02382,164.38389 145.24235,165.23809 C 144.88588,165.62774 144.46962,166.08302 144.31733,166.24983 C 143.75277,166.86822 142.05426,168.83936 141.84017,169.12462 C 141.71835,169.28692 141.37761,169.67411 141.08297,169.98505 C 140.78832,170.29598 140.48523,170.63745 140.40942,170.74385 C 140.2015,171.0357 139.31283,171.00925 138.56593,170.689 C 138.26451,170.55976 137.71438,170.38915 137.34341,170.30987 C 136.97244,170.2306 136.40865,170.0614 136.09055,169.93388 C 135.77246,169.80637 135.20335,169.64381 134.82588,169.57263 C 134.4484,169.50146 133.96227,169.35342 133.74558,169.24364 C 133.52888,169.13386 133.07974,168.99916 132.74748,168.94428 C 132.41522,168.88941 132.06944,168.78423 131.9791,168.71055 C 131.86021,168.6136 131.77049,168.33201 131.65432,167.69132 C 131.56604,167.20442 131.43579,166.5784 131.36488,166.30017 C 131.29397,166.02195 131.17478,165.16829 131.10001,164.40316 C 131.02525,163.63803 130.87332,162.63261 130.76241,162.1689 C 130.6515,161.70519 130.50224,160.71874 130.43074,159.97679 C 130.35922,159.23485 130.20793,158.22943 130.09452,157.74253 C 129.98111,157.25563 129.84708,156.44395 129.79666,155.93879 C 129.6773,154.74291 129.50921,154.43303 128.78577,154.07521 C 128.62347,153.99493 128.39582,153.84075 128.2799,153.73257 C 128.16397,153.6244 127.92826,153.47705 127.75608,153.40513 C 127.58392,153.33322 127.31834,153.16559 127.1659,153.03263 C 127.01347,152.89967 126.80089,152.76346 126.69351,152.72992 C 126.58613,152.69639 126.37231,152.55835 126.21835,152.42318 C 126.06439,152.288 125.8046,152.12148 125.64102,152.05314 C 125.47744,151.98479 125.21804,151.81418 125.06457,151.67401 C 124.9111,151.53384 124.74229,151.41915 124.68945,151.41915 C 124.6366,151.41915 124.45014,151.30533 124.27509,151.16622 C 123.89797,150.86652 123.64111,150.84992 123.04103,151.08646 C 122.7994,151.1817 122.29528,151.31741 121.92077,151.38803 C 121.54628,151.45865 120.97428,151.62123 120.64968,151.74932 C 120.32508,151.87741 119.79038,152.02563 119.46145,152.0787 C 119.13252,152.13177 118.65561,152.27032 118.40165,152.38659 C 118.14769,152.50286 117.63784,152.65072 117.26866,152.71517 C 116.89947,152.77962 116.34496,152.93335 116.0364,153.05679 C 115.72783,153.18024 115.15993,153.34035 114.77438,153.4126 C 114.38882,153.48485 113.8805,153.63475 113.64479,153.74571 C 113.40906,153.85667 112.8807,154.00596 112.47064,154.07747 C 112.06059,154.14898 111.55156,154.29455 111.33947,154.40098 C 110.3269,154.90904 110.14354,154.83463 109.01466,153.45755 C 108.92192,153.34441 108.70706,153.09559 108.53719,152.9046 C 108.36732,152.71362 108.02586,152.3268 107.77838,152.04499 C 107.53091,151.76319 107.22509,151.42173 107.09879,151.28619 C 106.88532,151.05711 106.17651,150.232 105.11525,148.97719 C 104.75379,148.54981 104.67261,148.39611 104.67261,148.13909 C 104.67261,147.71358 104.89503,146.99312 105.14128,146.62103 C 105.25234,146.4532 105.39839,146.13253 105.46583,145.90843 C 105.53328,145.68432 105.68361,145.35719 105.79989,145.18147 C 105.91618,145.00575 106.07145,144.65514 106.14495,144.40234 C 106.21843,144.14955 106.3716,143.8166 106.48531,143.66247 C 106.59903,143.50835 106.74871,143.1892 106.81794,142.95325 C 106.88718,142.71731 107.03617,142.38941 107.14904,142.22458 C 107.26191,142.05976 107.41089,141.73421 107.4801,141.50115 C 107.54931,141.2681 107.721,140.87179 107.86162,140.62047 C 108.00224,140.36916 108.14301,140.02236 108.17443,139.8498 C 108.20584,139.67724 108.34011,139.36489 108.47278,139.15568 C 108.60547,138.94647 108.77309,138.57211 108.84528,138.32378 C 108.91747,138.07545 109.06957,137.74616 109.18329,137.59203 C 109.297,137.4379 109.44706,137.11875 109.51675,136.88281 C 109.58644,136.64686 109.75792,136.28309 109.8978,136.07442 C 110.25266,135.54509 110.25394,134.98426 109.90147,134.4641 C 109.76318,134.26005 109.58958,133.88766 109.51567,133.63658 C 109.44176,133.3855 109.28814,133.04404 109.1743,132.87778 C 109.06045,132.71151 108.91066,132.38244 108.84142,132.14649 C 108.77219,131.91055 108.62251,131.5914 108.50879,131.43727 C 108.39508,131.28314 108.24362,130.95604 108.1722,130.71038 C 108.10079,130.46472 107.92236,130.063 107.7757,129.81768 C 107.62905,129.57235 107.46372,129.2949 107.40829,129.20112 C 107.24375,128.92268 106.50996,128.57981 105.7838,128.44206 C 105.41031,128.37121 104.90109,128.22001 104.6522,128.10607 C 104.4033,127.99212 103.8821,127.83865 103.49398,127.76503 C 103.10586,127.6914 102.61186,127.54175 102.39619,127.43247 C 102.18053,127.32318 101.69443,127.17503 101.31596,127.10323 C 100.93749,127.03144 100.44427,126.87968 100.2199,126.76599 C 99.99555,126.6523 99.49235,126.49865 99.10169,126.42456 C 98.71102,126.35046 98.2191,126.19976 98.00854,126.08967 C 97.79796,125.97958 97.28942,125.8265 96.87844,125.74949 C 96.46746,125.67248 95.95473,125.52004 95.73903,125.41074 C 95.52333,125.30144 95.19719,125.18634 95.01426,125.15497 C 94.14237,125.00545 94.06016,124.96102 93.83565,124.51799 C 93.56827,123.99033 93.48677,123.56037 93.32988,121.84955 C 93.26091,121.09752 93.11208,120.05417 92.99913,119.53098 C 92.76459,118.44446 92.57221,116.78448 92.64652,116.4884 C 92.72756,116.16552 93.026,115.84832 93.45169,115.63261 C 93.67029,115.52183 93.90114,115.36856 93.96468,115.29199 C 94.02822,115.21543 94.22708,115.07786 94.40659,114.98628 C 94.58609,114.8947 94.90455,114.6888 95.11426,114.52873 C 95.32397,114.36865 95.54946,114.23768 95.61536,114.23768 C 95.68126,114.23768 95.87596,114.10489 96.04803,113.94259 C 96.2201,113.78029 96.40698,113.6475 96.46332,113.6475 C 96.51967,113.6475 96.73735,113.51653 96.94706,113.35645 C 97.15677,113.19638 97.47522,112.99048 97.65473,112.8989 C 97.83424,112.80732 98.03294,112.66994 98.09629,112.5936 C 98.15965,112.51726 98.35835,112.37988 98.53786,112.2883 C 98.71737,112.19672 99.03582,111.99083 99.24553,111.83075 C 99.45524,111.67067 99.67422,111.5397 99.73213,111.5397 C 99.79006,111.5397 99.92942,111.4397 100.04185,111.31747 C 100.15427,111.19525 100.4058,111.02349 100.60082,110.93579 C 100.79583,110.84808 101.06141,110.68769 101.191,110.57936 C 101.32058,110.47102 101.58091,110.30409 101.7695,110.2084 C 101.95809,110.11271 102.16437,109.97178 102.22791,109.89521 C 102.29145,109.81865 102.51656,109.66821 102.72815,109.56091 C 102.93973,109.45362 103.18036,109.2911 103.26288,109.19977 C 103.34541,109.10843 103.56663,108.9644 103.75448,108.87969 C 104.02394,108.75818 104.14571,108.62671 104.33147,108.25675 C 104.58103,107.75976 104.68668,107.15791 104.84301,105.34279 C 104.89093,104.78633 105.02872,103.91714 105.1492,103.41125 C 105.45893,102.11063 105.45641,101.69966 105.13632,101.3183 C 104.99721,101.15255 104.69369,100.78201 104.46183,100.49486 C 103.99918,99.92188 103.46855,99.28781 103.01545,98.76648 C 102.85424,98.58099 102.58256,98.26807 102.41172,98.07109 C 102.24088,97.87411 101.94934,97.5458 101.76386,97.34151 C 101.57837,97.13722 101.23691,96.73379 101.00505,96.445 C 100.32849,95.6023 99.38979,94.49236 98.44055,93.41268 C 97.24883,92.05719 96.75874,91.48192 96.58779,91.23788 C 96.36403,90.91845 96.33765,90.51035 96.51795,90.15772 C 96.58655,90.02353 96.66834,89.79453 96.6997,89.64882 C 96.73105,89.50312 96.86716,89.20973 97.00216,88.99686 C 97.13716,88.78398 97.30669,88.40663 97.37889,88.1583 C 97.45107,87.90997 97.60318,87.58068 97.71689,87.42655 C 97.8306,87.27242 97.98377,86.93948 98.05726,86.68668 C 98.13075,86.43388 98.28255,86.08853 98.39457,85.91924 C 98.50661,85.74995 98.65345,85.42808 98.72089,85.20398 C 98.78834,84.97987 98.93505,84.65793 99.04692,84.48853 C 99.15879,84.31914 99.29841,84.02878 99.35719,83.8433 C 99.50925,83.36352 99.66057,83.1516 99.97302,82.98086 C 100.22623,82.8425 100.74829,82.82847 107.10129,82.7894 L 113.95633,82.74725 L 114.45942,82.19922 C 114.73613,81.89781 115.12289,81.47073 115.31891,81.25014 C 116.08731,80.38544 116.27677,80.17075 116.57968,79.82143 C 116.75248,79.62214 117.02626,79.30733 117.18806,79.12184 C 118.07142,78.10921 118.34054,77.76464 118.38432,77.59022 C 118.45139,77.32298 118.18261,74.26893 118.029,73.55283 C 117.77268,72.35798 117.73436,72.09301 117.61512,70.69067 C 117.54808,69.90235 117.39908,68.79657 117.28399,68.23339 C 117.08547,67.26181 116.8135,64.79158 116.8135,63.95993 C 116.8135,63.45687 116.94665,63.17992 117.24867,63.05483 C 117.38323,62.99908 117.63165,62.84356 117.80071,62.70921 C 117.96976,62.57487 118.2626,62.39577 118.45145,62.31122 C 118.64031,62.22668 118.86994,62.07299 118.96174,61.96968 C 119.05353,61.86638 119.2464,61.73267 119.39031,61.67253 C 119.53422,61.6124 119.83194,61.42583 120.0519,61.25793 C 120.27186,61.09004 120.50617,60.95266 120.5726,60.95266 C 120.63903,60.95266 120.8159,60.83557 120.96566,60.69245 C 121.11541,60.54934 121.36601,60.37874 121.52255,60.31333 C 121.67908,60.24793 121.93312,60.08382 122.08707,59.94864 C 122.24103,59.81347 122.45486,59.67552 122.56223,59.64209 C 122.66962,59.60866 122.8968,59.45632 123.06708,59.30355 C 123.27596,59.11615 123.49911,59.00743 123.75301,58.96937 C 124.1565,58.90886 124.35337,58.97754 124.77006,59.32423 C 124.90318,59.43499 125.14979,59.58313 125.31808,59.65343 C 125.48638,59.72373 125.71893,59.87207 125.83486,59.98308 C 125.95078,60.09408 126.18333,60.24243 126.35163,60.31273 C 126.51992,60.38303 126.76653,60.53147 126.89965,60.64259 C 127.03277,60.75372 127.27448,60.91221 127.43678,60.99482 C 127.59908,61.07743 127.84078,61.23593 127.9739,61.34705 C 128.10702,61.45817 128.34848,61.60447 128.51048,61.67216 C 128.67248,61.73984 128.93099,61.90583 129.08494,62.041 C 129.23891,62.17617 129.45273,62.31428 129.56011,62.34791 C 129.66749,62.38153 129.86509,62.5008 129.99923,62.61295 C 130.13336,62.7251 130.42029,62.90666 130.63686,63.0164 C 130.85343,63.12614 131.08461,63.28098 131.1506,63.36049 C 131.21658,63.44001 131.44184,63.57819 131.65117,63.66758 C 131.8605,63.75697 132.12662,63.9205 132.24255,64.03099 C 132.35848,64.14148 132.58914,64.28861 132.75513,64.35795 C 132.92112,64.42729 133.10844,64.54608 133.17139,64.62193 C 133.23435,64.69778 133.47794,64.85683 133.71271,64.97536 C 133.94748,65.0939 134.24847,65.28204 134.3816,65.39346 C 134.51471,65.50489 134.75524,65.65104 134.91608,65.71824 C 135.07693,65.78546 135.32008,65.9343 135.45641,66.04901 C 135.84818,66.37867 136.19837,66.40293 136.76934,66.13996 C 137.0387,66.0159 137.66522,65.82405 138.1616,65.71363 C 138.65798,65.6032 139.21767,65.43451 139.40536,65.33876 C 139.59306,65.243 140.05956,65.10532 140.44203,65.0328 C 140.8245,64.96028 141.44975,64.76533 141.83147,64.59958 C 142.49963,64.30944 142.53787,64.27751 142.85746,63.74257 C 143.04005,63.43697 143.22754,63.04409 143.27411,62.86952 C 143.32068,62.69495 143.45561,62.43705 143.57394,62.29642 C 143.69228,62.15579 143.84734,61.84461 143.91852,61.60491 C 143.9897,61.36521 144.14009,61.02985 144.25271,60.85967 C 144.36533,60.68949 144.5176,60.34341 144.59109,60.09061 C 144.66458,59.83781 144.81948,59.50253 144.93531,59.34553 C 145.05113,59.18854 145.18548,58.90733 145.23386,58.72062 C 145.28223,58.53391 145.4472,58.17248 145.60045,57.91744 C 145.7537,57.6624 145.92773,57.30197 145.98717,57.11648 C 146.04662,56.93099 146.18097,56.66541 146.28574,56.5263 C 146.39051,56.38718 146.53742,56.06135 146.61221,55.80222 C 146.687,55.54309 146.84123,55.20497 146.95494,55.05084 C 147.06866,54.89671 147.22239,54.56183 147.29657,54.30667 C 147.37074,54.05151 147.52458,53.70669 147.63843,53.54043 C 147.75227,53.37417 147.90194,53.04844 147.97102,52.81658 C 148.04636,52.56373 148.24418,52.22632 148.46532,51.97346 L 148.83402,51.55191 L 152.86888,51.53494 C 155.20156,51.52513 156.98467,51.551 157.09561,51.59626 z M 149.35783,89.44848 C 149.05641,89.49864 148.48731,89.63219 148.09315,89.74525 C 147.699,89.85831 147.11092,89.99201 146.78632,90.04237 C 146.46172,90.09273 146.04175,90.22425 145.85305,90.33464 C 145.66435,90.44502 145.25466,90.59454 144.94262,90.66691 C 144.63058,90.73927 144.23484,90.89463 144.06319,91.01213 C 143.89154,91.12964 143.55147,91.28434 143.30748,91.35591 C 143.06349,91.42749 142.75997,91.5715 142.63299,91.67594 C 142.50601,91.78038 142.23392,91.9318 142.02835,92.01241 C 141.82278,92.09303 141.54313,92.25278 141.40691,92.3674 C 141.27069,92.48202 141.02154,92.63333 140.85324,92.70363 C 140.68495,92.77393 140.4524,92.91996 140.33647,93.02813 C 140.22054,93.1363 140.00875,93.28373 139.86581,93.35575 C 139.59102,93.49422 139.10214,93.86505 138.49234,94.39756 C 138.02361,94.80688 135.93338,96.89881 135.48855,97.40379 C 134.83021,98.15114 133.89152,99.44343 133.80573,99.72052 C 133.77248,99.82791 133.63753,100.03848 133.50584,100.18847 C 133.37415,100.33845 133.20019,100.63 133.11926,100.83634 C 133.03833,101.04269 132.88729,101.31467 132.7836,101.44076 C 132.67992,101.56684 132.52997,101.87036 132.45037,102.11525 C 132.37078,102.36014 132.21761,102.67861 132.11,102.82297 C 132.00239,102.96732 131.85394,103.34587 131.78011,103.6642 C 131.70629,103.98253 131.54913,104.40808 131.43087,104.60988 C 131.30103,104.83143 131.17105,105.24968 131.10276,105.66566 C 131.04056,106.04454 130.89617,106.60114 130.78187,106.90256 C 130.65103,107.24764 130.53971,107.79403 130.48128,108.37801 C 130.3232,109.95794 130.2181,111.95881 130.26254,112.54225 C 130.28588,112.84872 130.34424,113.66857 130.39222,114.36415 C 130.50253,115.96305 130.59617,116.56079 130.81323,117.05149 C 130.90832,117.26647 131.03858,117.76638 131.1027,118.1624 C 131.17537,118.61137 131.30053,119.02115 131.43516,119.25087 C 131.55391,119.4535 131.69235,119.8217 131.7428,120.0691 C 131.79326,120.31649 131.94469,120.70065 132.07933,120.92279 C 132.21397,121.14493 132.38342,121.53064 132.45589,121.77992 C 132.52836,122.02921 132.64906,122.28377 132.72412,122.34562 C 132.79917,122.40747 132.98615,122.73314 133.13962,123.06933 C 133.29309,123.40553 133.45311,123.68059 133.49522,123.68059 C 133.53734,123.68059 133.67157,123.87978 133.79353,124.12323 C 134.00327,124.54194 134.29597,124.9613 134.83139,125.61023 C 134.96097,125.76728 135.10741,125.96861 135.15682,126.05762 C 135.43952,126.56699 138.38256,129.50709 138.89491,129.79198 C 138.97951,129.83902 139.17722,129.98387 139.33427,130.11387 C 139.88269,130.56783 140.54953,131.02691 140.84119,131.15132 C 141.00286,131.22028 141.21192,131.34883 141.30576,131.43699 C 141.3996,131.52515 141.70364,131.69724 141.9814,131.8194 C 142.25916,131.94157 142.5623,132.11068 142.65505,132.1952 C 142.74779,132.27973 143.03072,132.40965 143.28379,132.48391 C 143.53685,132.55817 143.87831,132.71193 144.04259,132.82561 C 144.20687,132.93928 144.60424,133.09317 144.92562,133.16759 C 145.24701,133.242 145.66435,133.39287 145.85305,133.50286 C 146.05194,133.61879 146.51506,133.75784 146.95494,133.83369 C 147.37229,133.90565 147.93105,134.04092 148.19665,134.13428 C 148.95237,134.39992 149.65469,134.47112 152.0558,134.52547 C 154.81979,134.58804 156.44704,134.48375 157.45176,134.17963 C 157.84591,134.06033 158.50987,133.90439 158.92721,133.8331 C 159.37971,133.75581 159.82799,133.62059 160.03773,133.49813 C 160.23118,133.38518 160.64852,133.23336 160.96516,133.16075 C 161.2818,133.08813 161.67946,132.93362 161.84884,132.8174 C 162.01823,132.70117 162.34072,132.551 162.56549,132.48369 C 162.79027,132.41638 163.12593,132.25364 163.31142,132.12205 C 163.49691,131.99045 163.78791,131.83751 163.95809,131.78218 C 164.12828,131.72685 164.31571,131.62352 164.37461,131.55255 C 164.43351,131.48158 164.69264,131.31659 164.95045,131.18591 C 165.20827,131.05523 165.51119,130.84965 165.62361,130.72907 C 165.73603,130.6085 165.87148,130.50984 165.92461,130.50984 C 165.97773,130.50984 166.17031,130.38474 166.35254,130.23184 C 166.53478,130.07894 166.80363,129.87975 166.94998,129.7892 C 167.73127,129.3058 170.52341,126.5068 170.85688,125.8727 C 170.91784,125.75677 171.11361,125.49533 171.29192,125.29172 C 171.47024,125.08812 171.61613,124.87658 171.61613,124.82163 C 171.61613,124.76668 171.70801,124.6354 171.82032,124.5299 C 171.93263,124.42439 172.13628,124.1041 172.27287,123.81814 C 172.40946,123.53218 172.58122,123.24842 172.65454,123.18757 C 172.72787,123.12671 172.83374,122.93768 172.88982,122.7675 C 172.94589,122.59732 173.11856,122.2736 173.27353,122.04813 C 173.4285,121.82266 173.5553,121.56932 173.5553,121.48515 C 173.5553,121.40098 173.68885,121.0759 173.85208,120.76274 C 174.01531,120.44958 174.20653,119.94466 174.27703,119.64069 C 174.34752,119.33672 174.48403,118.95469 174.58037,118.79172 C 174.67671,118.62876 174.8262,118.10425 174.91256,117.62616 C 174.99892,117.14807 175.16661,116.40823 175.2852,115.98208 C 175.7404,114.34635 175.74611,109.71789 175.29505,107.99861 C 175.17948,107.55808 175.0225,106.83722 174.94622,106.39669 C 174.86993,105.95616 174.70056,105.34911 174.56984,105.0477 C 174.43911,104.74629 174.29245,104.30997 174.24393,104.07812 C 174.1954,103.84626 174.02061,103.3977 173.8555,103.08133 C 173.69039,102.76495 173.5553,102.43819 173.5553,102.35519 C 173.5553,102.27219 173.44374,102.06391 173.30739,101.89233 C 173.17104,101.72076 172.99823,101.39597 172.92336,101.17058 C 172.8485,100.94519 172.72816,100.71174 172.65595,100.65181 C 172.58374,100.59188 172.41472,100.31591 172.28037,100.03854 C 172.14601,99.76118 171.99652,99.50979 171.94816,99.4799 C 171.86193,99.42661 171.59454,99.05827 170.97124,98.13414 C 170.79922,97.87909 170.56094,97.57036 170.44173,97.44805 C 170.32252,97.32574 170.05425,97.03302 169.84558,96.79755 C 168.92138,95.75467 167.45226,94.35823 166.95977,94.05452 C 166.80804,93.96094 166.53478,93.75928 166.35254,93.60638 C 166.17031,93.45347 165.97773,93.32837 165.92461,93.32837 C 165.87148,93.32837 165.73603,93.22895 165.62361,93.10743 C 165.51119,92.98591 165.2568,92.81602 165.05828,92.72991 C 164.85977,92.64378 164.55625,92.46335 164.38379,92.32893 C 164.21133,92.19451 163.94081,92.04175 163.78264,91.98946 C 163.62447,91.93717 163.37785,91.80551 163.23462,91.6969 C 163.09137,91.58829 162.78344,91.43644 162.55032,91.35946 C 162.3172,91.28249 161.99012,91.12685 161.82349,91.01363 C 161.65686,90.9004 161.26603,90.74873 160.95499,90.6766 C 160.64394,90.60447 160.23006,90.45203 160.03525,90.33787 C 159.80878,90.20515 159.39308,90.08424 158.88257,90.0026 C 158.44341,89.93237 157.7616,89.7764 157.36744,89.65601 C 156.92553,89.52103 156.29525,89.40968 155.72336,89.36555 C 154.5194,89.27265 150.0657,89.33066 149.35783,89.44848 z"
         id="path2248" />
      <path
         style="font-size:34.71993637px;font-style:normal;font-variant:normal;font-weight:normal;font-stretch:normal;text-align:start;line-height:125%;writing-mode:lr-tb;text-anchor:start;fill:#ffffff;fill-opacity:1;stroke:none;stroke-width:1px;stroke-linecap:butt;stroke-linejoin:miter;stroke-opacity:1;font-family:GAMECUBEN;-inkscape-font-specification:GAMECUBEN"
         d="M 61.851645,236.42686 L 52.928622,236.42686 L 52.928622,192.74918 L 61.851645,192.74918 L 61.851645,236.42686 M 74.871621,227.46912 L 78.968574,227.46912 L 78.968574,214.69218 L 74.871621,214.69218 L 74.871621,227.46912 M 70.28859,236.42686 L 70.28859,232.05215 L 65.948597,232.05215 L 65.948597,210.10915 L 70.28859,210.10915 L 70.28859,205.76916 L 83.551605,205.76916 L 83.551605,210.10915 L 87.891597,210.10915 L 87.891597,232.05215 L 83.551605,232.05215 L 83.551605,236.42686 L 70.28859,236.42686 M 66.191637,205.90803 L 70.531629,205.90803 L 70.531629,210.24803 L 66.191637,210.24803 L 66.191637,205.90803 M 83.551605,205.76916 L 87.891597,205.76916 L 87.891597,210.24803 L 83.551605,210.24803 L 83.551605,205.76916 M 83.551605,232.05215 L 87.891597,232.05215 L 87.891597,236.28798 L 83.551605,236.28798 L 83.551605,232.05215 M 65.948597,232.05215 L 70.28859,232.05215 L 70.28859,236.42686 L 65.948597,236.42686 L 65.948597,232.05215 M 100.91157,223.37216 L 100.91157,227.46912 L 105.00853,227.46912 L 105.00853,223.37216 L 100.91157,223.37216 M 91.988551,236.42686 L 91.988551,218.78913 L 105.00853,218.78913 L 105.00853,214.69218 L 91.988551,214.69218 L 91.988551,205.76916 L 113.93155,205.76916 L 113.93155,236.42686 L 91.988551,236.42686 M 126.95152,227.46912 L 131.04847,227.46912 L 131.04847,214.69218 L 126.95152,214.69218 L 126.95152,227.46912 M 122.36849,236.42686 L 122.36849,232.05215 L 118.0285,232.05215 L 118.0285,210.10915 L 122.36849,210.10915 L 122.36849,205.76916 L 131.04847,205.76916 L 131.04847,192.74918 L 139.9715,192.74918 L 139.9715,236.42686 L 122.36849,236.42686 M 118.27154,205.90803 L 122.36849,205.90803 L 122.36849,210.10915 L 118.27154,210.10915 L 118.27154,205.90803 M 118.0285,232.05215 L 122.36849,232.05215 L 122.36849,236.42686 L 118.0285,236.42686 L 118.0285,232.05215 M 152.99148,201.6722 L 144.06845,201.6722 L 144.06845,192.74918 L 152.99148,192.74918 L 152.99148,201.6722 M 152.99148,236.42686 L 144.06845,236.42686 L 144.06845,205.76916 L 152.99148,205.76916 L 152.99148,236.42686 M 166.01145,236.42686 L 157.08843,236.42686 L 157.08843,205.76916 L 174.69143,205.76916 L 174.69143,210.10915 L 179.03143,210.10915 L 179.03143,236.42686 L 170.1084,236.42686 L 170.1084,214.69218 L 166.01145,214.69218 L 166.01145,236.42686 M 174.69143,205.76916 L 179.03143,205.76916 L 179.03143,210.10915 L 174.69143,210.10915 L 174.69143,205.76916 M 192.0514,227.46912 L 196.14835,227.46912 L 196.14835,214.69218 L 192.0514,214.69218 L 192.0514,227.46912 M 200.73138,249.44684 L 187.46837,249.44684 L 187.46837,240.52381 L 196.14835,240.52381 L 196.14835,236.42686 L 187.46837,236.42686 L 187.46837,232.05215 L 183.12837,232.05215 L 183.12837,210.10915 L 187.46837,210.10915 L 187.46837,205.76916 L 205.07137,205.76916 L 205.07137,245.10684 L 200.73138,245.10684 L 200.73138,249.44684 M 183.37141,205.90803 L 187.46837,205.90803 L 187.46837,210.10915 L 183.37141,210.10915 L 183.37141,205.90803 M 200.73138,245.10684 L 205.07137,245.10684 L 205.07137,249.30796 L 200.73138,249.30796 L 200.73138,245.10684 M 183.37141,240.62797 L 187.46837,240.62797 L 187.46837,249.44684 L 183.37141,249.44684 L 183.37141,240.62797 M 183.12837,232.05215 L 187.46837,232.05215 L 187.46837,236.42686 L 183.12837,236.42686 L 183.12837,232.05215"
         id="text3548" />
    </g>
  </g>
</svg>
