<?xml version="1.0" encoding="UTF-8" standalone="no"?>
<!-- Created with Inkscape (http://www.inkscape.org/) -->
<svg
   xmlns:dc="http://purl.org/dc/elements/1.1/"
   xmlns:cc="http://creativecommons.org/ns#"
   xmlns:rdf="http://www.w3.org/1999/02/22-rdf-syntax-ns#"
   xmlns:svg="http://www.w3.org/2000/svg"
   xmlns="http://www.w3.org/2000/svg"
   xmlns:sodipodi="http://sodipodi.sourceforge.net/DTD/sodipodi-0.dtd"
   xmlns:inkscape="http://www.inkscape.org/namespaces/inkscape"
   width="512"
   height="512"
   id="svg2"
   sodipodi:version="0.32"
   inkscape:version="0.46"
   version="1.0"
   sodipodi:docname="logo.svg"
   inkscape:output_extension="org.inkscape.output.svg.inkscape">
  <defs
     id="defs4">
    <inkscape:perspective
       sodipodi:type="inkscape:persp3d"
       inkscape:vp_x="0 : 526.18109 : 1"
       inkscape:vp_y="0 : 1000 : 0"
       inkscape:vp_z="744.09448 : 526.18109 : 1"
       inkscape:persp3d-origin="372.04724 : 350.78739 : 1"
       id="perspective10" />
  </defs>
  <sodipodi:namedview
     id="base"
     pagecolor="#ffffff"
     bordercolor="#666666"
     borderopacity="1.0"
     gridtolerance="10000"
     guidetolerance="10"
     objecttolerance="10"
     inkscape:pageopacity="1"
     inkscape:pageshadow="2"
     inkscape:zoom="1"
     inkscape:cx="375"
     inkscape:cy="240"
     inkscape:document-units="px"
     inkscape:current-layer="layer1"
     showgrid="false"
     inkscape:window-width="1280"
     inkscape:window-height="752"
     inkscape:window-x="0"
     inkscape:window-y="25" />
  <metadata
     id="metadata7">
    <rdf:RDF>
      <cc:Work
         rdf:about="">
        <dc:format>image/svg+xml</dc:format>
        <dc:type
           rdf:resource="http://purl.org/dc/dcmitype/StillImage" />
      </cc:Work>
    </rdf:RDF>
  </metadata>
  <g
     inkscape:label="Layer 1"
     inkscape:groupmode="layer"
     id="layer1"
     transform="translate(-95.547272,-451.42084)">
    <g
       id="g3218"
       transform="matrix(1.524162,0,0,1.524162,-215.51303,-261.06348)">
      <g
         id="g3205">
        <path
           style="fill:#000000;fill-opacity:1;stroke:#000000;stroke-width:4.31197071;stroke-linecap:square;stroke-linejoin:miter;stroke-miterlimit:4;stroke-dashoffset:0;stroke-opacity:1"
           d="M 340.08477,565.49816 C 328.64219,565.56474 318.77986,568.41023 309.09247,571.5484 L 309.09247,658.21901 C 330.19588,648.51132 350.35713,651.99368 370.32246,658.21901 L 370.32246,571.5484 C 358.8382,567.07735 348.98455,565.44639 340.08477,565.49816 z M 404.76433,565.49816 C 393.32175,565.56474 383.45942,568.41023 373.77204,571.5484 L 373.77204,658.21901 C 394.87544,648.51132 415.03669,651.99368 435.00203,658.21901 L 435.00203,571.5484 C 423.51777,567.07735 413.66411,565.44639 404.76433,565.49816 z"
           id="rect3180" />
        <path
           id="path3199"
           d="M 342.51639,570.50347 C 331.94433,570.56215 322.83231,573.06973 313.8819,575.83524 L 313.8819,652.21356 C 333.37982,643.65867 352.00726,646.7275 370.45367,652.21356 L 370.45367,575.83524 C 359.84311,571.89513 350.73909,570.45784 342.51639,570.50347 z M 402.2753,570.50347 C 391.70325,570.56215 382.59121,573.06973 373.64083,575.83524 L 373.64083,652.21356 C 393.13873,643.65867 411.76616,646.7275 430.2126,652.21356 L 430.2126,575.83524 C 419.60203,571.89513 410.49801,570.45784 402.2753,570.50347 z"
           style="fill:#000000;fill-opacity:1;stroke:#ffffff;stroke-width:3.89083457;stroke-linecap:square;stroke-linejoin:miter;stroke-miterlimit:4;stroke-dashoffset:0;stroke-opacity:1" />
      </g>
      <g
         id="g3214">
        <path
           style="font-size:34.52704239px;font-style:normal;font-variant:normal;font-weight:normal;font-stretch:normal;text-align:start;line-height:125%;writing-mode:lr-tb;text-anchor:start;fill:#000000;fill-opacity:1;stroke:#000000;stroke-width:3;stroke-linecap:butt;stroke-linejoin:miter;stroke-miterlimit:4;stroke-dasharray:none;stroke-opacity:1;font-family:Arial;-inkscape-font-specification:Arial"
           d="M 268.61787,672.31661 L 274.65336,672.31661 L 274.65336,686.59611 L 281.59923,679.6671 L 288.61254,679.6671 L 279.39071,688.33257 L 289.33747,698.54907 L 282.0207,698.54907 L 274.65336,690.67596 L 274.65336,698.54907 L 268.61787,698.54907 L 268.61787,672.31661 M 310.59655,687.0513 L 310.59655,698.54907 L 304.52734,698.54907 L 304.52734,696.67773 L 304.52734,689.74872 C 304.52733,688.11904 304.48799,686.99511 304.40933,686.37694 C 304.34188,685.75879 304.21825,685.3036 304.03844,685.01137 C 303.8024,684.61801 303.48208,684.31455 303.07748,684.10099 C 302.67285,683.87622 302.21204,683.76383 301.69505,683.76381 C 300.43624,683.76383 299.44718,684.25273 298.72788,685.23054 C 298.00856,686.19713 297.6489,687.54022 297.64891,689.25981 L 297.64891,698.54907 L 291.61342,698.54907 L 291.61342,679.6671 L 297.64891,679.6671 L 297.64891,682.43196 C 298.55928,681.33053 299.52586,680.5213 300.54864,680.00427 C 301.5714,679.47605 302.70095,679.21192 303.93728,679.21191 C 306.11768,679.21192 307.76986,679.88066 308.8938,681.21812 C 310.02895,682.5556 310.59653,684.5 310.59655,687.0513 M 325.21322,683.52779 C 323.87574,683.5278 322.85297,684.01109 322.1449,684.97765 C 321.44806,685.933 321.09964,687.31543 321.09965,689.12494 C 321.09964,690.93447 321.44806,692.32252 322.1449,693.28909 C 322.85297,694.24444 323.87574,694.7221 325.21322,694.7221 C 326.52821,694.7221 327.53412,694.24444 328.23097,693.28909 C 328.92779,692.32252 329.2762,690.93447 329.27622,689.12494 C 329.2762,687.31543 328.92779,685.933 328.23097,684.97765 C 327.53412,684.01109 326.52821,683.5278 325.21322,683.52779 M 325.21322,679.21191 C 328.46136,679.21192 330.99581,680.08859 332.81659,681.8419 C 334.64857,683.59524 335.56457,686.02292 335.56459,689.12494 C 335.56457,692.22699 334.64857,694.65467 332.81659,696.40799 C 330.99581,698.16132 328.46136,699.03798 325.21322,699.03798 C 321.95383,699.03798 319.40251,698.16132 317.55928,696.40799 C 315.72728,694.65467 314.81128,692.22699 314.81128,689.12494 C 314.81128,686.02292 315.72728,683.59524 317.55928,681.8419 C 319.40251,680.08859 321.95383,679.21192 325.21322,679.21191 M 338.27887,679.6671 L 344.14577,679.6671 L 347.31525,692.68217 L 350.50158,679.6671 L 355.5424,679.6671 L 358.71187,692.5473 L 361.8982,679.6671 L 367.7651,679.6671 L 362.79173,698.54907 L 356.19989,698.54907 L 353.01356,685.56771 L 349.84408,698.54907 L 343.25225,698.54907 L 338.27887,679.6671 M 371.86182,672.31661 L 377.89731,672.31661 L 377.89731,698.54907 L 371.86182,698.54907 L 371.86182,672.31661 M 402.57875,689.05751 L 402.57875,690.77712 L 388.46784,690.77712 C 388.61394,692.19327 389.12533,693.25538 390.002,693.96345 C 390.87866,694.67153 392.10374,695.02556 393.67724,695.02556 C 394.94727,695.02556 396.2454,694.84012 397.57165,694.46922 C 398.90911,694.08709 400.2803,693.51388 401.68523,692.74961 L 401.68523,697.40267 C 400.25782,697.94215 398.83043,698.34677 397.40306,698.61651 C 395.97566,698.89749 394.54827,699.03798 393.1209,699.03798 C 389.70415,699.03798 387.04607,698.17256 385.14664,696.44171 C 383.25844,694.69963 382.31434,692.26071 382.31434,689.12494 C 382.31434,686.0454 383.24158,683.62333 385.09606,681.85875 C 386.96177,680.09421 389.52433,679.21192 392.78372,679.21191 C 395.75088,679.21192 398.12236,680.10545 399.89818,681.89247 C 401.6852,683.67953 402.57873,686.06787 402.57875,689.05751 M 396.37467,687.0513 C 396.37465,685.9049 396.03748,684.98328 395.36314,684.28644 C 394.7,683.57838 393.82896,683.22434 392.75,683.22433 C 391.58111,683.22434 390.63139,683.5559 389.90085,684.219 C 389.17029,684.87089 388.7151,685.81499 388.53528,687.0513 L 396.37467,687.0513 M 419.97715,682.43196 L 419.97715,672.31661 L 426.04635,672.31661 L 426.04635,698.54907 L 419.97715,698.54907 L 419.97715,695.81793 C 419.14543,696.93062 418.22943,697.74547 417.22914,698.26247 C 416.22884,698.77948 415.07119,699.03798 413.75621,699.03798 C 411.42967,699.03798 409.519,698.11636 408.02418,696.27312 C 406.52936,694.41864 405.78194,692.03592 405.78195,689.12494 C 405.78194,686.21398 406.52936,683.83688 408.02418,681.99363 C 409.519,680.13916 411.42967,679.21192 413.75621,679.21191 C 415.05995,679.21192 416.21198,679.47605 417.21229,680.00427 C 418.22381,680.5213 419.14543,681.33053 419.97715,682.43196 M 415.99844,694.65466 C 417.29095,694.65467 418.27438,694.18262 418.94875,693.23852 C 419.63433,692.29442 419.97713,690.92323 419.97715,689.12494 C 419.97713,687.32667 419.63433,685.95548 418.94875,685.01137 C 418.27438,684.06729 417.29095,683.59524 415.99844,683.59522 C 414.71716,683.59524 413.73372,684.06729 413.04814,685.01137 C 412.37377,685.95548 412.03659,687.32667 412.0366,689.12494 C 412.03659,690.92323 412.37377,692.29442 413.04814,693.23852 C 413.73372,694.18262 414.71716,694.65467 415.99844,694.65466 M 444.72602,695.34588 C 443.8943,696.44733 442.9783,697.25656 441.97801,697.77356 C 440.97771,698.29057 439.82006,698.54907 438.50508,698.54907 C 436.20102,698.54907 434.29597,697.64431 432.78991,695.83479 C 431.28385,694.01403 430.53082,691.69874 430.53082,688.88892 C 430.53082,686.06787 431.28385,683.75821 432.78991,681.95991 C 434.29597,680.1504 436.20102,679.24564 438.50508,679.24562 C 439.82006,679.24564 440.97771,679.50415 441.97801,680.02113 C 442.9783,680.53816 443.8943,681.353 444.72602,682.46567 L 444.72602,679.6671 L 450.79522,679.6671 L 450.79522,696.64402 C 450.7952,699.67862 449.83424,701.99391 447.91235,703.58989 C 446.00166,705.19709 443.22556,706.0007 439.58405,706.00071 C 438.40392,706.0007 437.26313,705.91079 436.16169,705.73097 C 435.06024,705.55113 433.95317,705.27577 432.84049,704.90488 L 432.84049,700.20125 C 433.89697,700.80816 434.93099,701.25773 435.94253,701.54996 C 436.95405,701.85341 437.97121,702.00514 438.99399,702.00515 C 440.97209,702.00514 442.42195,701.57243 443.34359,700.70701 C 444.26519,699.84159 444.726,698.48726 444.72602,696.64402 L 444.72602,695.34588 M 440.74731,683.59522 C 439.49975,683.59524 438.52755,684.05605 437.83072,684.97765 C 437.13388,685.89928 436.78546,687.20304 436.78547,688.88892 C 436.78546,690.61977 437.12264,691.93477 437.79701,692.8339 C 438.47135,693.72181 439.45479,694.16576 440.74731,694.16576 C 442.0061,694.16576 442.98392,693.70495 443.68076,692.78333 C 444.37758,691.86171 444.726,690.56358 444.72602,688.88892 C 444.726,687.20304 444.37758,685.89928 443.68076,684.97765 C 442.98392,684.05605 442.0061,683.59524 440.74731,683.59522 M 475.47666,689.05751 L 475.47666,690.77712 L 461.36575,690.77712 C 461.51186,692.19327 462.02324,693.25538 462.89991,693.96345 C 463.77657,694.67153 465.00165,695.02556 466.57516,695.02556 C 467.84518,695.02556 469.14331,694.84012 470.46956,694.46922 C 471.80702,694.08709 473.17821,693.51388 474.58314,692.74961 L 474.58314,697.40267 C 473.15573,697.94215 471.72834,698.34677 470.30097,698.61651 C 468.87357,698.89749 467.44619,699.03798 466.01881,699.03798 C 462.60206,699.03798 459.94398,698.17256 458.04455,696.44171 C 456.15635,694.69963 455.21225,692.26071 455.21225,689.12494 C 455.21225,686.0454 456.13949,683.62333 457.99397,681.85875 C 459.85968,680.09421 462.42224,679.21192 465.68163,679.21191 C 468.64879,679.21192 471.02027,680.10545 472.79609,681.89247 C 474.58312,683.67953 475.47664,686.06787 475.47666,689.05751 M 469.27258,687.0513 C 469.27257,685.9049 468.93539,684.98328 468.26105,684.28644 C 467.59792,683.57838 466.72687,683.22434 465.64792,683.22433 C 464.47902,683.22434 463.5293,683.5559 462.79876,684.219 C 462.0682,684.87089 461.61301,685.81499 461.43319,687.0513 L 469.27258,687.0513"
           id="text3201" />
        <path
           id="path3212"
           d="M 268.61787,672.31661 L 274.65336,672.31661 L 274.65336,686.59611 L 281.59923,679.6671 L 288.61254,679.6671 L 279.39071,688.33257 L 289.33747,698.54907 L 282.0207,698.54907 L 274.65336,690.67596 L 274.65336,698.54907 L 268.61787,698.54907 L 268.61787,672.31661 M 310.59655,687.0513 L 310.59655,698.54907 L 304.52734,698.54907 L 304.52734,696.67773 L 304.52734,689.74872 C 304.52733,688.11904 304.48799,686.99511 304.40933,686.37694 C 304.34188,685.75879 304.21825,685.3036 304.03844,685.01137 C 303.8024,684.61801 303.48208,684.31455 303.07748,684.10099 C 302.67285,683.87622 302.21204,683.76383 301.69505,683.76381 C 300.43624,683.76383 299.44718,684.25273 298.72788,685.23054 C 298.00856,686.19713 297.6489,687.54022 297.64891,689.25981 L 297.64891,698.54907 L 291.61342,698.54907 L 291.61342,679.6671 L 297.64891,679.6671 L 297.64891,682.43196 C 298.55928,681.33053 299.52586,680.5213 300.54864,680.00427 C 301.5714,679.47605 302.70095,679.21192 303.93728,679.21191 C 306.11768,679.21192 307.76986,679.88066 308.8938,681.21812 C 310.02895,682.5556 310.59653,684.5 310.59655,687.0513 M 325.21322,683.52779 C 323.87574,683.5278 322.85297,684.01109 322.1449,684.97765 C 321.44806,685.933 321.09964,687.31543 321.09965,689.12494 C 321.09964,690.93447 321.44806,692.32252 322.1449,693.28909 C 322.85297,694.24444 323.87574,694.7221 325.21322,694.7221 C 326.52821,694.7221 327.53412,694.24444 328.23097,693.28909 C 328.92779,692.32252 329.2762,690.93447 329.27622,689.12494 C 329.2762,687.31543 328.92779,685.933 328.23097,684.97765 C 327.53412,684.01109 326.52821,683.5278 325.21322,683.52779 M 325.21322,679.21191 C 328.46136,679.21192 330.99581,680.08859 332.81659,681.8419 C 334.64857,683.59524 335.56457,686.02292 335.56459,689.12494 C 335.56457,692.22699 334.64857,694.65467 332.81659,696.40799 C 330.99581,698.16132 328.46136,699.03798 325.21322,699.03798 C 321.95383,699.03798 319.40251,698.16132 317.55928,696.40799 C 315.72728,694.65467 314.81128,692.22699 314.81128,689.12494 C 314.81128,686.02292 315.72728,683.59524 317.55928,681.8419 C 319.40251,680.08859 321.95383,679.21192 325.21322,679.21191 M 338.27887,679.6671 L 344.14577,679.6671 L 347.31525,692.68217 L 350.50158,679.6671 L 355.5424,679.6671 L 358.71187,692.5473 L 361.8982,679.6671 L 367.7651,679.6671 L 362.79173,698.54907 L 356.19989,698.54907 L 353.01356,685.56771 L 349.84408,698.54907 L 343.25225,698.54907 L 338.27887,679.6671 M 371.86182,672.31661 L 377.89731,672.31661 L 377.89731,698.54907 L 371.86182,698.54907 L 371.86182,672.31661 M 402.57875,689.05751 L 402.57875,690.77712 L 388.46784,690.77712 C 388.61394,692.19327 389.12533,693.25538 390.002,693.96345 C 390.87866,694.67153 392.10374,695.02556 393.67724,695.02556 C 394.94727,695.02556 396.2454,694.84012 397.57165,694.46922 C 398.90911,694.08709 400.2803,693.51388 401.68523,692.74961 L 401.68523,697.40267 C 400.25782,697.94215 398.83043,698.34677 397.40306,698.61651 C 395.97566,698.89749 394.54827,699.03798 393.1209,699.03798 C 389.70415,699.03798 387.04607,698.17256 385.14664,696.44171 C 383.25844,694.69963 382.31434,692.26071 382.31434,689.12494 C 382.31434,686.0454 383.24158,683.62333 385.09606,681.85875 C 386.96177,680.09421 389.52433,679.21192 392.78372,679.21191 C 395.75088,679.21192 398.12236,680.10545 399.89818,681.89247 C 401.6852,683.67953 402.57873,686.06787 402.57875,689.05751 M 396.37467,687.0513 C 396.37465,685.9049 396.03748,684.98328 395.36314,684.28644 C 394.7,683.57838 393.82896,683.22434 392.75,683.22433 C 391.58111,683.22434 390.63139,683.5559 389.90085,684.219 C 389.17029,684.87089 388.7151,685.81499 388.53528,687.0513 L 396.37467,687.0513 M 419.97715,682.43196 L 419.97715,672.31661 L 426.04635,672.31661 L 426.04635,698.54907 L 419.97715,698.54907 L 419.97715,695.81793 C 419.14543,696.93062 418.22943,697.74547 417.22914,698.26247 C 416.22884,698.77948 415.07119,699.03798 413.75621,699.03798 C 411.42967,699.03798 409.519,698.11636 408.02418,696.27312 C 406.52936,694.41864 405.78194,692.03592 405.78195,689.12494 C 405.78194,686.21398 406.52936,683.83688 408.02418,681.99363 C 409.519,680.13916 411.42967,679.21192 413.75621,679.21191 C 415.05995,679.21192 416.21198,679.47605 417.21229,680.00427 C 418.22381,680.5213 419.14543,681.33053 419.97715,682.43196 M 415.99844,694.65466 C 417.29095,694.65467 418.27438,694.18262 418.94875,693.23852 C 419.63433,692.29442 419.97713,690.92323 419.97715,689.12494 C 419.97713,687.32667 419.63433,685.95548 418.94875,685.01137 C 418.27438,684.06729 417.29095,683.59524 415.99844,683.59522 C 414.71716,683.59524 413.73372,684.06729 413.04814,685.01137 C 412.37377,685.95548 412.03659,687.32667 412.0366,689.12494 C 412.03659,690.92323 412.37377,692.29442 413.04814,693.23852 C 413.73372,694.18262 414.71716,694.65467 415.99844,694.65466 M 444.72602,695.34588 C 443.8943,696.44733 442.9783,697.25656 441.97801,697.77356 C 440.97771,698.29057 439.82006,698.54907 438.50508,698.54907 C 436.20102,698.54907 434.29597,697.64431 432.78991,695.83479 C 431.28385,694.01403 430.53082,691.69874 430.53082,688.88892 C 430.53082,686.06787 431.28385,683.75821 432.78991,681.95991 C 434.29597,680.1504 436.20102,679.24564 438.50508,679.24562 C 439.82006,679.24564 440.97771,679.50415 441.97801,680.02113 C 442.9783,680.53816 443.8943,681.353 444.72602,682.46567 L 444.72602,679.6671 L 450.79522,679.6671 L 450.79522,696.64402 C 450.7952,699.67862 449.83424,701.99391 447.91235,703.58989 C 446.00166,705.19709 443.22556,706.0007 439.58405,706.00071 C 438.40392,706.0007 437.26313,705.91079 436.16169,705.73097 C 435.06024,705.55113 433.95317,705.27577 432.84049,704.90488 L 432.84049,700.20125 C 433.89697,700.80816 434.93099,701.25773 435.94253,701.54996 C 436.95405,701.85341 437.97121,702.00514 438.99399,702.00515 C 440.97209,702.00514 442.42195,701.57243 443.34359,700.70701 C 444.26519,699.84159 444.726,698.48726 444.72602,696.64402 L 444.72602,695.34588 M 440.74731,683.59522 C 439.49975,683.59524 438.52755,684.05605 437.83072,684.97765 C 437.13388,685.89928 436.78546,687.20304 436.78547,688.88892 C 436.78546,690.61977 437.12264,691.93477 437.79701,692.8339 C 438.47135,693.72181 439.45479,694.16576 440.74731,694.16576 C 442.0061,694.16576 442.98392,693.70495 443.68076,692.78333 C 444.37758,691.86171 444.726,690.56358 444.72602,688.88892 C 444.726,687.20304 444.37758,685.89928 443.68076,684.97765 C 442.98392,684.05605 442.0061,683.59524 440.74731,683.59522 M 475.47666,689.05751 L 475.47666,690.77712 L 461.36575,690.77712 C 461.51186,692.19327 462.02324,693.25538 462.89991,693.96345 C 463.77657,694.67153 465.00165,695.02556 466.57516,695.02556 C 467.84518,695.02556 469.14331,694.84012 470.46956,694.46922 C 471.80702,694.08709 473.17821,693.51388 474.58314,692.74961 L 474.58314,697.40267 C 473.15573,697.94215 471.72834,698.34677 470.30097,698.61651 C 468.87357,698.89749 467.44619,699.03798 466.01881,699.03798 C 462.60206,699.03798 459.94398,698.17256 458.04455,696.44171 C 456.15635,694.69963 455.21225,692.26071 455.21225,689.12494 C 455.21225,686.0454 456.13949,683.62333 457.99397,681.85875 C 459.85968,680.09421 462.42224,679.21192 465.68163,679.21191 C 468.64879,679.21192 471.02027,680.10545 472.79609,681.89247 C 474.58312,683.67953 475.47664,686.06787 475.47666,689.05751 M 469.27258,687.0513 C 469.27257,685.9049 468.93539,684.98328 468.26105,684.28644 C 467.59792,683.57838 466.72687,683.22434 465.64792,683.22433 C 464.47902,683.22434 463.5293,683.5559 462.79876,684.219 C 462.0682,684.87089 461.61301,685.81499 461.43319,687.0513 L 469.27258,687.0513"
           style="font-size:34.52704239px;font-style:normal;font-variant:normal;font-weight:normal;font-stretch:normal;text-align:start;line-height:125%;writing-mode:lr-tb;text-anchor:start;fill:#ffffff;fill-opacity:1;stroke:none;stroke-width:3;stroke-linecap:butt;stroke-linejoin:miter;stroke-miterlimit:4;stroke-dasharray:none;stroke-opacity:1;font-family:Arial;-inkscape-font-specification:Arial" />
      </g>
    </g>
  </g>
</svg>
